<svg width="1045" height="154" viewBox="0 0 1045 154" fill="none" xmlns="http://www.w3.org/2000/svg">
<path d="M100.167 7.98779V151.376H76.2042V135.596C73.2169 141.051 68.9308 145.337 63.346 148.454C57.7611 151.441 51.3969 152.935 44.2535 152.935C35.8113 152.935 28.2782 150.792 21.6543 146.506C15.0303 142.22 9.83512 136.18 6.06858 128.387C2.43192 120.465 0.613586 111.438 0.613586 101.307C0.613586 91.1764 2.43192 82.2796 6.06858 74.6166C9.70523 66.9536 14.8355 61.0441 21.4594 56.8879C28.0834 52.6018 35.6814 50.4588 44.2535 50.4588C51.2671 50.4588 57.5013 51.9524 62.9563 54.9397C68.5412 57.7971 72.8273 61.8883 75.8145 67.2134V7.98779H100.167ZM50.6826 133.842C58.7352 133.842 64.9695 131.05 69.3854 125.465C73.9312 119.88 76.2042 111.957 76.2042 101.697C76.2042 91.4361 73.9962 83.5134 69.5802 77.9286C65.1643 72.3437 58.93 69.5513 50.8774 69.5513C42.6949 69.5513 36.3308 72.3437 31.785 77.9286C27.369 83.3836 25.161 91.1764 25.161 101.307C25.161 111.568 27.369 119.555 31.785 125.27C36.3308 130.985 42.63 133.842 50.6826 133.842Z" fill="#CA4237"/>
<path d="M125.694 44.3842H151.956V151.34H125.694V44.3842Z" fill="url(#paint0_linear_429_733)"/>
<path d="M282.155 44.596L235.348 151.34H212.263L166.092 44.596H193.837L224.547 121.265L255.892 44.596H282.155Z" fill="url(#paint1_linear_429_733)"/>
<path d="M387.667 99.2389H313.962C314.527 110.676 317.351 119.148 322.434 124.654C327.658 130.02 335.353 132.702 345.519 132.702C357.239 132.702 368.111 128.89 378.136 121.265L385.76 139.48C380.677 143.574 374.394 146.893 366.911 149.434C359.568 151.834 352.085 153.035 344.46 153.035C326.952 153.035 313.185 148.093 303.161 138.209C293.136 128.325 288.123 114.77 288.123 97.5445C288.123 86.6724 290.312 77.0005 294.689 68.5287C299.066 60.057 305.208 53.4913 313.115 48.8319C321.022 44.0312 329.988 41.6309 340.013 41.6309C354.697 41.6309 366.275 46.4315 374.747 56.0329C383.36 65.493 387.667 78.5536 387.667 95.2148V99.2389ZM340.648 60.6923C333.588 60.6923 327.799 62.8103 323.281 67.0462C318.904 71.1409 316.08 77.1417 314.809 85.0487H364.581C363.734 77.0005 361.263 70.9291 357.168 66.8344C353.215 62.7397 347.708 60.6923 340.648 60.6923Z" fill="url(#paint2_linear_429_733)"/>
<path d="M467.693 41.8426C471.788 41.8426 475.318 42.4074 478.283 43.537L478.071 67.6816C473.553 65.846 468.893 64.9282 464.093 64.9282C455.056 64.9282 448.138 67.5403 443.337 72.7646C438.677 77.9889 436.348 84.9075 436.348 93.5205V151.34H410.085V74.6708C410.085 63.3751 409.52 53.2795 408.391 44.3842H433.171L435.289 63.2339C437.971 56.3153 442.207 51.0204 447.996 47.3493C453.785 43.6782 460.351 41.8426 467.693 41.8426Z" fill="url(#paint3_linear_429_733)"/>
<path d="M531.172 153.035C511.828 153.035 496.438 148.516 485.001 139.48L492.414 120.842C503.851 129.314 516.911 133.55 531.596 133.55C537.949 133.55 542.821 132.491 546.209 130.373C549.739 128.255 551.504 125.29 551.504 121.477C551.504 118.23 550.304 115.688 547.904 113.853C545.503 111.876 541.409 110.182 535.62 108.77L517.829 104.746C498.344 100.51 488.601 90.5553 488.601 74.8825C488.601 68.3875 490.437 62.6691 494.108 57.7272C497.779 52.6442 502.933 48.6907 509.569 45.8667C516.205 43.0428 523.9 41.6309 532.655 41.6309C540.279 41.6309 547.621 42.831 554.681 45.2313C561.741 47.4905 567.954 50.8086 573.319 55.1857L565.483 73.1882C554.752 65.2812 543.738 61.3277 532.443 61.3277C526.371 61.3277 521.641 62.4573 518.253 64.7164C514.864 66.9756 513.17 70.0819 513.17 74.0354C513.17 77.1417 514.158 79.6126 516.135 81.4482C518.253 83.2837 521.782 84.8369 526.724 86.1076L544.939 90.1317C555.528 92.5321 563.224 96.2738 568.024 101.357C572.966 106.299 575.437 112.794 575.437 120.842C575.437 130.726 571.484 138.562 563.577 144.351C555.67 150.14 544.868 153.035 531.172 153.035Z" fill="url(#paint4_linear_429_733)"/>
<path d="M598.094 44.3842H624.356V151.34H598.094V44.3842Z" fill="url(#paint5_linear_429_733)"/>
<path d="M658.222 0.54248H756.706V22.3573H685.331V63.6572H752.47V85.6838H685.331V151.34H658.222V0.54248Z" fill="url(#paint6_linear_429_733)"/>
<path d="M777.518 44.3839H803.781V151.34H777.518V44.3839Z" fill="url(#paint7_linear_429_733)"/>
<path d="M881.243 153.034C870.088 153.034 860.416 150.775 852.227 146.257C844.038 141.739 837.754 135.385 833.377 127.195C829 118.865 826.812 109.122 826.812 97.9678C826.812 86.8133 829.071 77.0002 833.589 68.5284C838.249 60.0567 844.744 53.491 853.074 48.8316C861.546 44.0309 871.288 41.6306 882.302 41.6306C889.926 41.6306 897.269 42.8307 904.328 45.2311C911.529 47.6314 917.248 50.9495 921.484 55.1854L914.071 73.8233C909.553 70.1522 904.752 67.3989 899.669 65.5633C894.586 63.5866 889.573 62.5982 884.632 62.5982C875.03 62.5982 867.547 65.6339 862.181 71.7053C856.816 77.6356 854.133 86.2485 854.133 97.5442C854.133 108.84 856.745 117.453 861.97 123.383C867.335 129.313 874.889 132.279 884.632 132.279C889.573 132.279 894.586 131.29 899.669 129.313C904.752 127.337 909.553 124.513 914.071 120.842L921.484 139.48C916.965 143.715 911.106 147.034 903.905 149.434C896.704 151.834 889.15 153.034 881.243 153.034Z" fill="url(#paint8_linear_429_733)"/>
<path d="M1041.56 44.3839V151.34H1015.51V134.185C1012.26 140.115 1007.6 144.774 1001.53 148.163C995.456 151.411 988.537 153.034 980.771 153.034C971.452 153.034 963.192 150.775 955.991 146.257C948.79 141.739 943.213 135.314 939.26 126.984C935.306 118.653 933.329 108.981 933.329 97.9678C933.329 86.9545 935.306 77.212 939.26 68.7402C943.354 60.1273 949.002 53.491 956.203 48.8316C963.404 44.0309 971.594 41.6306 980.771 41.6306C988.537 41.6306 995.456 43.3249 1001.53 46.7136C1007.6 49.9611 1012.26 54.55 1015.51 60.4802V44.3839H1041.56ZM987.972 132.279C996.726 132.279 1003.5 129.243 1008.3 123.171C1013.11 117.1 1015.51 108.558 1015.51 97.5442C1015.51 86.2485 1013.11 77.565 1008.3 71.4936C1003.5 65.4221 996.656 62.3864 987.76 62.3864C979.006 62.3864 972.158 65.5633 967.216 71.9171C962.416 78.1298 960.015 86.8133 960.015 97.9678C960.015 108.981 962.416 117.453 967.216 123.383C972.158 129.313 979.077 132.279 987.972 132.279Z" fill="url(#paint9_linear_429_733)"/>
<path d="M103.167 7.98779V151.376H79.2042V135.596C76.2169 141.051 71.9308 145.337 66.346 148.454C60.7611 151.441 54.3969 152.935 47.2535 152.935C38.8113 152.935 31.2782 150.792 24.6543 146.506C18.0303 142.22 12.8351 136.18 9.06858 128.387C5.43192 120.465 3.61359 111.438 3.61359 101.307C3.61359 91.1764 5.43192 82.2796 9.06858 74.6166C12.7052 66.9536 17.8355 61.0441 24.4594 56.8879C31.0834 52.6018 38.6814 50.4588 47.2535 50.4588C54.2671 50.4588 60.5013 51.9524 65.9563 54.9397C71.5412 57.7971 75.8273 61.8883 78.8145 67.2134V7.98779H103.167ZM53.6826 133.842C61.7352 133.842 67.9695 131.05 72.3854 125.465C76.9312 119.88 79.2042 111.957 79.2042 101.697C79.2042 91.4361 76.9962 83.5134 72.5802 77.9286C68.1643 72.3437 61.93 69.5513 53.8774 69.5513C45.6949 69.5513 39.3308 72.3437 34.785 77.9286C30.369 83.3836 28.161 91.1764 28.161 101.307C28.161 111.568 30.369 119.555 34.785 125.27C39.3308 130.985 45.63 133.842 53.6826 133.842Z" fill="#D26053"/>
<path d="M128.694 44.3842H154.956V151.34H128.694V44.3842Z" fill="url(#paint10_linear_429_733)"/>
<path d="M285.155 44.596L238.348 151.34H215.263L169.092 44.596H196.837L227.547 121.265L258.892 44.596H285.155Z" fill="url(#paint11_linear_429_733)"/>
<path d="M390.667 99.2389H316.962C317.527 110.676 320.351 119.148 325.434 124.654C330.658 130.02 338.353 132.702 348.519 132.702C360.239 132.702 371.111 128.89 381.136 121.265L388.76 139.48C383.677 143.574 377.394 146.893 369.911 149.434C362.568 151.834 355.085 153.035 347.46 153.035C329.952 153.035 316.185 148.093 306.161 138.209C296.136 128.325 291.123 114.77 291.123 97.5445C291.123 86.6724 293.312 77.0005 297.689 68.5287C302.066 60.057 308.208 53.4913 316.115 48.8319C324.022 44.0312 332.988 41.6309 343.013 41.6309C357.697 41.6309 369.275 46.4315 377.747 56.0329C386.36 65.493 390.667 78.5536 390.667 95.2148V99.2389ZM343.648 60.6923C336.588 60.6923 330.799 62.8103 326.281 67.0462C321.904 71.1409 319.08 77.1417 317.809 85.0487H367.581C366.734 77.0005 364.263 70.9291 360.168 66.8344C356.215 62.7397 350.708 60.6923 343.648 60.6923Z" fill="url(#paint12_linear_429_733)"/>
<path d="M470.693 41.8426C474.788 41.8426 478.318 42.4074 481.283 43.537L481.071 67.6816C476.553 65.846 471.893 64.9282 467.093 64.9282C458.056 64.9282 451.138 67.5403 446.337 72.7646C441.677 77.9889 439.348 84.9075 439.348 93.5205V151.34H413.085V74.6708C413.085 63.3751 412.52 53.2795 411.391 44.3842H436.171L438.289 63.2339C440.971 56.3153 445.207 51.0204 450.996 47.3493C456.785 43.6782 463.351 41.8426 470.693 41.8426Z" fill="url(#paint13_linear_429_733)"/>
<path d="M534.172 153.035C514.828 153.035 499.438 148.516 488.001 139.48L495.414 120.842C506.851 129.314 519.911 133.55 534.596 133.55C540.949 133.55 545.821 132.491 549.209 130.373C552.739 128.255 554.504 125.29 554.504 121.477C554.504 118.23 553.304 115.688 550.904 113.853C548.503 111.876 544.409 110.182 538.62 108.77L520.829 104.746C501.344 100.51 491.601 90.5553 491.601 74.8825C491.601 68.3875 493.437 62.6691 497.108 57.7272C500.779 52.6442 505.933 48.6907 512.569 45.8667C519.205 43.0428 526.9 41.6309 535.655 41.6309C543.279 41.6309 550.621 42.831 557.681 45.2313C564.741 47.4905 570.954 50.8086 576.319 55.1857L568.483 73.1882C557.752 65.2812 546.738 61.3277 535.443 61.3277C529.371 61.3277 524.641 62.4573 521.253 64.7164C517.864 66.9756 516.17 70.0819 516.17 74.0354C516.17 77.1417 517.158 79.6126 519.135 81.4482C521.253 83.2837 524.782 84.8369 529.724 86.1076L547.939 90.1317C558.528 92.5321 566.224 96.2738 571.024 101.357C575.966 106.299 578.437 112.794 578.437 120.842C578.437 130.726 574.484 138.562 566.577 144.351C558.67 150.14 547.868 153.035 534.172 153.035Z" fill="url(#paint14_linear_429_733)"/>
<path d="M601.094 44.3842H627.356V151.34H601.094V44.3842Z" fill="url(#paint15_linear_429_733)"/>
<path d="M661.222 0.54248H759.706V22.3573H688.331V63.6572H755.47V85.6838H688.331V151.34H661.222V0.54248Z" fill="url(#paint16_linear_429_733)"/>
<path d="M780.518 44.3839H806.781V151.34H780.518V44.3839Z" fill="url(#paint17_linear_429_733)"/>
<path d="M884.243 153.034C873.088 153.034 863.416 150.775 855.227 146.257C847.038 141.739 840.754 135.385 836.377 127.195C832 118.865 829.812 109.122 829.812 97.9678C829.812 86.8133 832.071 77.0002 836.589 68.5284C841.249 60.0567 847.744 53.491 856.074 48.8316C864.546 44.0309 874.288 41.6306 885.302 41.6306C892.926 41.6306 900.269 42.8307 907.328 45.2311C914.529 47.6314 920.248 50.9495 924.484 55.1854L917.071 73.8233C912.553 70.1522 907.752 67.3989 902.669 65.5633C897.586 63.5866 892.573 62.5982 887.632 62.5982C878.03 62.5982 870.547 65.6339 865.181 71.7053C859.816 77.6356 857.133 86.2485 857.133 97.5442C857.133 108.84 859.745 117.453 864.97 123.383C870.335 129.313 877.889 132.279 887.632 132.279C892.573 132.279 897.586 131.29 902.669 129.313C907.752 127.337 912.553 124.513 917.071 120.842L924.484 139.48C919.965 143.715 914.106 147.034 906.905 149.434C899.704 151.834 892.15 153.034 884.243 153.034Z" fill="url(#paint18_linear_429_733)"/>
<path d="M1044.56 44.3839V151.34H1018.51V134.185C1015.26 140.115 1010.6 144.774 1004.53 148.163C998.456 151.411 991.537 153.034 983.771 153.034C974.452 153.034 966.192 150.775 958.991 146.257C951.79 141.739 946.213 135.314 942.26 126.984C938.306 118.653 936.329 108.981 936.329 97.9678C936.329 86.9545 938.306 77.212 942.26 68.7402C946.354 60.1273 952.002 53.491 959.203 48.8316C966.404 44.0309 974.594 41.6306 983.771 41.6306C991.537 41.6306 998.456 43.3249 1004.53 46.7136C1010.6 49.9611 1015.26 54.55 1018.51 60.4802V44.3839H1044.56ZM990.972 132.279C999.726 132.279 1006.5 129.243 1011.3 123.171C1016.11 117.1 1018.51 108.558 1018.51 97.5442C1018.51 86.2485 1016.11 77.565 1011.3 71.4936C1006.5 65.4221 999.656 62.3864 990.76 62.3864C982.006 62.3864 975.158 65.5633 970.216 71.9171C965.416 78.1298 963.015 86.8133 963.015 97.9678C963.015 108.981 965.416 117.453 970.216 123.383C975.158 129.313 982.077 132.279 990.972 132.279Z" fill="url(#paint19_linear_429_733)"/>
<defs>
<linearGradient id="paint0_linear_429_733" x1="53.6422" y1="-4.5403" x2="535.949" y2="241.988" gradientUnits="userSpaceOnUse">
<stop stop-color="#CA4237"/>
</linearGradient>
<linearGradient id="paint1_linear_429_733" x1="53.6422" y1="-4.5403" x2="535.949" y2="241.988" gradientUnits="userSpaceOnUse">
<stop stop-color="#CA4237"/>
</linearGradient>
<linearGradient id="paint2_linear_429_733" x1="53.6422" y1="-4.5403" x2="535.949" y2="241.988" gradientUnits="userSpaceOnUse">
<stop stop-color="#CA4237"/>
</linearGradient>
<linearGradient id="paint3_linear_429_733" x1="53.6422" y1="-4.5403" x2="535.949" y2="241.988" gradientUnits="userSpaceOnUse">
<stop stop-color="#CA4237"/>
</linearGradient>
<linearGradient id="paint4_linear_429_733" x1="53.6422" y1="-4.5403" x2="535.949" y2="241.988" gradientUnits="userSpaceOnUse">
<stop stop-color="#CA4237"/>
</linearGradient>
<linearGradient id="paint5_linear_429_733" x1="53.6422" y1="-4.5403" x2="535.949" y2="241.988" gradientUnits="userSpaceOnUse">
<stop stop-color="#CA4237"/>
</linearGradient>
<linearGradient id="paint6_linear_429_733" x1="673.223" y1="76.7884" x2="1065.55" y2="131.358" gradientUnits="userSpaceOnUse">
<stop stop-color="#BE4137"/>
</linearGradient>
<linearGradient id="paint7_linear_429_733" x1="673.223" y1="76.7884" x2="1065.55" y2="131.358" gradientUnits="userSpaceOnUse">
<stop stop-color="#BE4137"/>
</linearGradient>
<linearGradient id="paint8_linear_429_733" x1="673.223" y1="76.7884" x2="1065.55" y2="131.358" gradientUnits="userSpaceOnUse">
<stop stop-color="#BE4137"/>
</linearGradient>
<linearGradient id="paint9_linear_429_733" x1="673.223" y1="76.7884" x2="1065.55" y2="131.358" gradientUnits="userSpaceOnUse">
<stop stop-color="#BE4137"/>
</linearGradient>
<linearGradient id="paint10_linear_429_733" x1="56.6422" y1="-4.5403" x2="538.949" y2="241.988" gradientUnits="userSpaceOnUse">
<stop stop-color="#CA4237"/>
<stop offset="0.296875" stop-color="#D36759"/>
<stop offset="0.635417" stop-color="#F49560"/>
<stop offset="1" stop-color="#E4AF71"/>
</linearGradient>
<linearGradient id="paint11_linear_429_733" x1="56.6422" y1="-4.5403" x2="538.949" y2="241.988" gradientUnits="userSpaceOnUse">
<stop stop-color="#CA4237"/>
<stop offset="0.296875" stop-color="#D36759"/>
<stop offset="0.635417" stop-color="#F49560"/>
<stop offset="1" stop-color="#E4AF71"/>
</linearGradient>
<linearGradient id="paint12_linear_429_733" x1="56.6422" y1="-4.5403" x2="538.949" y2="241.988" gradientUnits="userSpaceOnUse">
<stop stop-color="#CA4237"/>
<stop offset="0.296875" stop-color="#D36759"/>
<stop offset="0.635417" stop-color="#F49560"/>
<stop offset="1" stop-color="#E4AF71"/>
</linearGradient>
<linearGradient id="paint13_linear_429_733" x1="56.6422" y1="-4.5403" x2="538.949" y2="241.988" gradientUnits="userSpaceOnUse">
<stop stop-color="#CA4237"/>
<stop offset="0.296875" stop-color="#D36759"/>
<stop offset="0.635417" stop-color="#F49560"/>
<stop offset="1" stop-color="#E4AF71"/>
</linearGradient>
<linearGradient id="paint14_linear_429_733" x1="56.6422" y1="-4.5403" x2="538.949" y2="241.988" gradientUnits="userSpaceOnUse">
<stop stop-color="#CA4237"/>
<stop offset="0.296875" stop-color="#D36759"/>
<stop offset="0.635417" stop-color="#F49560"/>
<stop offset="1" stop-color="#E4AF71"/>
</linearGradient>
<linearGradient id="paint15_linear_429_733" x1="56.6422" y1="-4.5403" x2="538.949" y2="241.988" gradientUnits="userSpaceOnUse">
<stop stop-color="#CA4237"/>
<stop offset="0.296875" stop-color="#D36759"/>
<stop offset="0.635417" stop-color="#F49560"/>
<stop offset="1" stop-color="#E4AF71"/>
</linearGradient>
<linearGradient id="paint16_linear_429_733" x1="676.223" y1="76.7884" x2="1068.55" y2="131.358" gradientUnits="userSpaceOnUse">
<stop stop-color="#BE4137"/>
<stop offset="1" stop-color="#B86255"/>
</linearGradient>
<linearGradient id="paint17_linear_429_733" x1="676.223" y1="76.7884" x2="1068.55" y2="131.358" gradientUnits="userSpaceOnUse">
<stop stop-color="#BE4137"/>
<stop offset="1" stop-color="#B86255"/>
</linearGradient>
<linearGradient id="paint18_linear_429_733" x1="676.223" y1="76.7884" x2="1068.55" y2="131.358" gradientUnits="userSpaceOnUse">
<stop stop-color="#BE4137"/>
<stop offset="1" stop-color="#B86255"/>
</linearGradient>
<linearGradient id="paint19_linear_429_733" x1="676.223" y1="76.7884" x2="1068.55" y2="131.358" gradientUnits="userSpaceOnUse">
<stop stop-color="#BE4137"/>
<stop offset="1" stop-color="#B86255"/>
</linearGradient>
</defs>
</svg>
