<svg width="227" height="227" viewBox="0 0 227 227" fill="none" xmlns="http://www.w3.org/2000/svg">
<circle cx="113.386" cy="113.789" r="112.942" fill="url(#paint0_linear_429_732)"/>
<path d="M155.018 36.293V179.681H131.055V163.901C128.067 169.356 123.781 173.642 118.196 176.759C112.612 179.746 106.247 181.24 99.104 181.24C90.6618 181.24 83.1287 179.097 76.5048 174.811C69.8809 170.525 64.6856 164.485 60.9191 156.692C57.2824 148.77 55.4641 139.743 55.4641 129.612C55.4641 119.482 57.2824 110.585 60.9191 102.922C64.5558 95.2588 69.686 89.3492 76.31 85.1931C82.9339 80.907 90.5319 78.764 99.104 78.764C106.118 78.764 112.352 80.2576 117.807 83.2449C123.392 86.1022 127.678 90.1935 130.665 95.5186V36.293H155.018ZM105.533 162.147C113.586 162.147 119.82 159.355 124.236 153.77C128.782 148.185 131.055 140.262 131.055 130.002C131.055 119.741 128.847 111.819 124.431 106.234C120.015 100.649 113.781 97.8564 105.728 97.8564C97.5455 97.8564 91.1813 100.649 86.6355 106.234C82.2195 111.689 80.0116 119.482 80.0116 129.612C80.0116 139.873 82.2195 147.86 86.6355 153.575C91.1813 159.29 97.4805 162.147 105.533 162.147Z" fill="#CA4237"/>
<path d="M151.516 35.293V178.681H127.553V162.901C124.566 168.356 120.28 172.642 114.695 175.759C109.11 178.746 102.746 180.24 95.6027 180.24C87.1604 180.24 79.6274 178.097 73.0034 173.811C66.3795 169.525 61.1843 163.485 57.4178 155.692C53.7811 147.77 51.9628 138.743 51.9628 128.612C51.9628 118.482 53.7811 109.585 57.4178 101.922C61.0544 94.2588 66.1847 88.3492 72.8086 84.1931C79.4325 79.907 87.0306 77.764 95.6027 77.764C102.616 77.764 108.851 79.2576 114.306 82.2449C119.89 85.1022 124.176 89.1935 127.164 94.5186V35.293H151.516ZM102.032 161.147C110.084 161.147 116.319 158.355 120.735 152.77C125.28 147.185 127.553 139.262 127.553 129.002C127.553 118.741 125.345 110.819 120.929 105.234C116.513 99.6489 110.279 96.8564 102.227 96.8564C94.0441 96.8564 87.68 99.6489 83.1341 105.234C78.7182 110.689 76.5102 118.482 76.5102 128.612C76.5102 138.873 78.7182 146.86 83.1341 152.575C87.68 158.29 93.9792 161.147 102.032 161.147Z" fill="white"/>
<defs>
<linearGradient id="paint0_linear_429_732" x1="29.6867" y1="25.5242" x2="205.079" y2="162.383" gradientUnits="userSpaceOnUse">
<stop stop-color="#BC4F44"/>
<stop offset="0.354167" stop-color="#DE765B"/>
<stop offset="0.703125" stop-color="#EA885E"/>
<stop offset="1" stop-color="#ECA469"/>
</linearGradient>
</defs>
</svg>
