<svg width="59" height="86" viewBox="0 0 59 86" fill="none" xmlns="http://www.w3.org/2000/svg">
<mask id="mask0_211_20" style="mask-type:alpha" maskUnits="userSpaceOnUse" x="0" y="0" width="59" height="86">
<path d="M58.5992 0.5354V84.2206H44.6137V75.0107C42.8703 78.1944 40.3688 80.6959 37.1094 82.5151C33.8499 84.2585 30.1356 85.1303 25.9665 85.1303C21.0394 85.1303 16.6429 83.8795 12.777 81.3781C8.91107 78.8766 5.879 75.3518 3.68075 70.8037C1.5583 66.1798 0.49707 60.9116 0.49707 54.999C0.49707 49.0865 1.5583 43.8941 3.68075 39.4217C5.8032 34.9494 8.79737 31.5005 12.6633 29.0748C16.5292 26.5733 20.9636 25.3226 25.9665 25.3226C30.0598 25.3226 33.6983 26.1943 36.882 27.9378C40.1414 29.6054 42.6429 31.9932 44.3863 35.101V0.5354H58.5992ZM29.7187 73.9874C34.4184 73.9874 38.0569 72.3576 40.6341 69.0982C43.2872 65.8387 44.6137 61.2148 44.6137 55.2264C44.6137 49.2381 43.3251 44.6142 40.7478 41.3547C38.1706 38.0952 34.5321 36.4655 29.8324 36.4655C25.0569 36.4655 21.3426 38.0952 18.6895 41.3547C16.1122 44.5384 14.8236 49.0865 14.8236 54.999C14.8236 60.9874 16.1122 65.6492 18.6895 68.9845C21.3426 72.3197 25.019 73.9874 29.7187 73.9874Z" fill="white"/>
</mask>
<g mask="url(#mask0_211_20)">
<circle cx="35.1776" cy="46.3475" r="65.9159" fill="url(#paint0_linear_211_20)" fill-opacity="0.2"/>
</g>
<defs>
<linearGradient id="paint0_linear_211_20" x1="-13.6714" y1="-5.16588" x2="88.6922" y2="74.7087" gradientUnits="userSpaceOnUse">
<stop stop-color="#B352FF"/>
<stop offset="0.354167" stop-color="#BFA2F9"/>
<stop offset="0.703125" stop-color="#A5D7DA"/>
<stop offset="1" stop-color="#F7A8B8"/>
</linearGradient>
</defs>
</svg>
