<svg width="795" height="235" viewBox="0 0 795 235" fill="none" xmlns="http://www.w3.org/2000/svg">
<path d="M2.20294 204.139H9.83494C11.6589 204.139 13.2669 204.491 14.6589 205.195C16.0669 205.883 17.1549 206.859 17.9229 208.123C18.7069 209.387 19.0989 210.859 19.0989 212.539C19.0989 214.219 18.7069 215.691 17.9229 216.955C17.1549 218.219 16.0669 219.203 14.6589 219.907C13.2669 220.595 11.6589 220.939 9.83494 220.939H2.20294V204.139ZM9.64294 217.747C11.3229 217.747 12.6589 217.283 13.6509 216.355C14.6589 215.411 15.1629 214.139 15.1629 212.539C15.1629 210.939 14.6589 209.675 13.6509 208.747C12.6589 207.803 11.3229 207.331 9.64294 207.331H6.09094V217.747H9.64294ZM22.0311 204.139H25.9191V220.939H22.0311V204.139ZM45.9643 204.139L38.6923 220.939H34.8523L27.6043 204.139H31.8043L36.9163 216.139L42.1003 204.139H45.9643ZM60.375 217.819V220.939H47.367V204.139H60.063V207.259H51.231V210.907H59.031V213.931H51.231V217.819H60.375ZM74.1726 220.939L70.9326 216.259H70.7406H67.3566V220.939H63.4686V204.139H70.7406C72.2286 204.139 73.5166 204.387 74.6046 204.883C75.7086 205.379 76.5566 206.083 77.1486 206.995C77.7406 207.907 78.0366 208.987 78.0366 210.235C78.0366 211.483 77.7326 212.563 77.1246 213.475C76.5326 214.371 75.6846 215.059 74.5806 215.539L78.3486 220.939H74.1726ZM74.1006 210.235C74.1006 209.291 73.7966 208.571 73.1886 208.075C72.5806 207.563 71.6926 207.307 70.5246 207.307H67.3566V213.163H70.5246C71.6926 213.163 72.5806 212.907 73.1886 212.395C73.7966 211.883 74.1006 211.163 74.1006 210.235ZM86.637 221.227C85.309 221.227 84.021 221.051 82.773 220.699C81.541 220.331 80.549 219.859 79.797 219.283L81.117 216.355C81.837 216.883 82.693 217.307 83.685 217.627C84.677 217.947 85.669 218.107 86.661 218.107C87.765 218.107 88.581 217.947 89.109 217.627C89.637 217.291 89.901 216.851 89.901 216.307C89.901 215.907 89.741 215.579 89.421 215.323C89.117 215.051 88.717 214.835 88.221 214.675C87.741 214.515 87.085 214.339 86.253 214.147C84.973 213.843 83.925 213.539 83.109 213.235C82.293 212.931 81.589 212.443 80.997 211.771C80.421 211.099 80.133 210.203 80.133 209.083C80.133 208.107 80.397 207.227 80.925 206.443C81.453 205.643 82.245 205.011 83.301 204.547C84.373 204.083 85.677 203.851 87.213 203.851C88.285 203.851 89.333 203.979 90.357 204.235C91.381 204.491 92.277 204.859 93.045 205.339L91.845 208.291C90.293 207.411 88.741 206.971 87.189 206.971C86.101 206.971 85.293 207.147 84.765 207.499C84.253 207.851 83.997 208.315 83.997 208.891C83.997 209.467 84.293 209.899 84.885 210.187C85.493 210.459 86.413 210.731 87.645 211.003C88.925 211.307 89.973 211.611 90.789 211.915C91.605 212.219 92.301 212.699 92.877 213.355C93.469 214.011 93.765 214.899 93.765 216.019C93.765 216.979 93.493 217.859 92.949 218.659C92.421 219.443 91.621 220.067 90.549 220.531C89.477 220.995 88.173 221.227 86.637 221.227ZM96.4217 204.139H100.31V220.939H96.4217V204.139ZM104.297 204.139H111.929C113.753 204.139 115.361 204.491 116.753 205.195C118.161 205.883 119.249 206.859 120.017 208.123C120.801 209.387 121.193 210.859 121.193 212.539C121.193 214.219 120.801 215.691 120.017 216.955C119.249 218.219 118.161 219.203 116.753 219.907C115.361 220.595 113.753 220.939 111.929 220.939H104.297V204.139ZM111.737 217.747C113.417 217.747 114.753 217.283 115.745 216.355C116.753 215.411 117.257 214.139 117.257 212.539C117.257 210.939 116.753 209.675 115.745 208.747C114.753 207.803 113.417 207.331 111.737 207.331H108.185V217.747H111.737ZM134.954 217.339H127.154L125.666 220.939H121.682L129.17 204.139H133.01L140.522 220.939H136.442L134.954 217.339ZM133.73 214.387L131.066 207.955L128.402 214.387H133.73ZM142.265 204.139H149.897C151.721 204.139 153.329 204.491 154.721 205.195C156.129 205.883 157.217 206.859 157.985 208.123C158.769 209.387 159.161 210.859 159.161 212.539C159.161 214.219 158.769 215.691 157.985 216.955C157.217 218.219 156.129 219.203 154.721 219.907C153.329 220.595 151.721 220.939 149.897 220.939H142.265V204.139ZM149.705 217.747C151.385 217.747 152.721 217.283 153.713 216.355C154.721 215.411 155.225 214.139 155.225 212.539C155.225 210.939 154.721 209.675 153.713 208.747C152.721 207.803 151.385 207.331 149.705 207.331H146.153V217.747H149.705ZM175.102 217.819V220.939H162.094V204.139H174.79V207.259H165.958V210.907H173.758V213.931H165.958V217.819H175.102Z" fill="#BE4137"/>
<circle cx="19.9004" cy="60.7354" r="13.9502" fill="#AF5043"/>
<circle cx="14.1612" cy="118.775" r="13.9502" fill="#F49560"/>
<circle cx="47.8008" cy="90.875" r="13.9502" fill="#FF9A24"/>
<circle cx="115.08" cy="28.0674" r="13.9502" fill="#634A48"/>
<circle cx="133.118" cy="125.037" r="13.9502" fill="#FA6A1A"/>
<circle cx="47.8008" cy="158.6" r="13.9502" fill="#3B0A05"/>
<circle cx="61.751" cy="30.5342" r="13.9502" fill="#E43E28"/>
<circle cx="142.98" cy="65.4043" r="13.9502" fill="#601009"/>
<circle cx="81.4405" cy="62.9141" r="13.9502" fill="#1C0200"/>
<circle cx="81.4405" cy="118.775" r="13.9502" fill="#BE4137"/>
<circle cx="105.217" cy="154.41" r="13.9502" fill="#CE1709"/>
<circle cx="109.341" cy="98.3311" r="13.9502" fill="#7E4239"/>
<path d="M334.705 217.819V220.939H321.697V204.139H334.393V207.259H325.561V210.907H333.361V213.931H325.561V217.819H334.705ZM355.92 222.739C355.376 223.411 354.712 223.923 353.928 224.275C353.16 224.627 352.312 224.803 351.384 224.803C350.136 224.803 349.008 224.531 348 223.987C346.992 223.459 345.84 222.515 344.544 221.155C343.024 220.963 341.664 220.475 340.464 219.691C339.28 218.907 338.352 217.899 337.68 216.667C337.024 215.419 336.696 214.043 336.696 212.539C336.696 210.891 337.088 209.411 337.872 208.099C338.672 206.771 339.768 205.731 341.16 204.979C342.568 204.227 344.144 203.851 345.888 203.851C347.632 203.851 349.2 204.227 350.592 204.979C351.984 205.731 353.08 206.771 353.88 208.099C354.68 209.411 355.08 210.891 355.08 212.539C355.08 214.491 354.528 216.203 353.424 217.675C352.336 219.147 350.888 220.171 349.08 220.747C349.48 221.163 349.864 221.459 350.232 221.635C350.616 221.827 351.024 221.923 351.456 221.923C352.496 221.923 353.408 221.507 354.192 220.675L355.92 222.739ZM340.632 212.539C340.632 213.579 340.856 214.507 341.304 215.323C341.768 216.139 342.4 216.779 343.2 217.243C344 217.691 344.896 217.915 345.888 217.915C346.88 217.915 347.776 217.691 348.576 217.243C349.376 216.779 350 216.139 350.448 215.323C350.912 214.507 351.144 213.579 351.144 212.539C351.144 211.499 350.912 210.571 350.448 209.755C350 208.939 349.376 208.307 348.576 207.859C347.776 207.395 346.88 207.163 345.888 207.163C344.896 207.163 344 207.395 343.2 207.859C342.4 208.307 341.768 208.939 341.304 209.755C340.856 210.571 340.632 211.499 340.632 212.539ZM365.466 221.227C363.066 221.227 361.194 220.563 359.85 219.235C358.522 217.907 357.858 216.011 357.858 213.547V204.139H361.746V213.403C361.746 216.411 362.994 217.915 365.49 217.915C366.706 217.915 367.634 217.555 368.274 216.835C368.914 216.099 369.234 214.955 369.234 213.403V204.139H373.074V213.547C373.074 216.011 372.402 217.907 371.058 219.235C369.73 220.563 367.866 221.227 365.466 221.227ZM376.916 204.139H380.804V220.939H376.916V204.139ZM384.791 204.139H392.423C394.247 204.139 395.855 204.491 397.247 205.195C398.655 205.883 399.743 206.859 400.511 208.123C401.295 209.387 401.687 210.859 401.687 212.539C401.687 214.219 401.295 215.691 400.511 216.955C399.743 218.219 398.655 219.203 397.247 219.907C395.855 220.595 394.247 220.939 392.423 220.939H384.791V204.139ZM392.231 217.747C393.911 217.747 395.247 217.283 396.239 216.355C397.247 215.411 397.751 214.139 397.751 212.539C397.751 210.939 397.247 209.675 396.239 208.747C395.247 207.803 393.911 207.331 392.231 207.331H388.679V217.747H392.231ZM415.449 217.339H407.649L406.161 220.939H402.177L409.665 204.139H413.505L421.017 220.939H416.937L415.449 217.339ZM414.225 214.387L411.561 207.955L408.897 214.387H414.225ZM422.76 204.139H430.392C432.216 204.139 433.824 204.491 435.216 205.195C436.624 205.883 437.712 206.859 438.48 208.123C439.264 209.387 439.656 210.859 439.656 212.539C439.656 214.219 439.264 215.691 438.48 216.955C437.712 218.219 436.624 219.203 435.216 219.907C433.824 220.595 432.216 220.939 430.392 220.939H422.76V204.139ZM430.2 217.747C431.88 217.747 433.216 217.283 434.208 216.355C435.216 215.411 435.72 214.139 435.72 212.539C435.72 210.939 435.216 209.675 434.208 208.747C433.216 207.803 431.88 207.331 430.2 207.331H426.648V217.747H430.2ZM455.596 217.819V220.939H442.588V204.139H455.284V207.259H446.452V210.907H454.252V213.931H446.452V217.819H455.596Z" fill="#BE4137"/>
<circle cx="242.64" cy="91.1621" r="13.9502" fill="#AF5043"/>
<circle cx="326.341" cy="91.1621" r="13.9502" fill="#F49560"/>
<circle cx="270.541" cy="91.1621" r="13.9502" fill="#FF9A24"/>
<circle cx="521.645" cy="91.1621" r="13.9502" fill="#634A48"/>
<circle cx="410.043" cy="91.1621" r="13.9502" fill="#FA6A1A"/>
<circle cx="493.744" cy="91.1621" r="13.9502" fill="#3B0A05"/>
<circle cx="437.943" cy="91.1621" r="13.9502" fill="#E43E28"/>
<circle cx="465.844" cy="91.1621" r="13.9502" fill="#601009"/>
<circle cx="298.44" cy="91.1621" r="13.9502" fill="#1C0200"/>
<circle cx="354.242" cy="91.1621" r="13.9502" fill="#BE4137"/>
<circle cx="382.142" cy="91.1621" r="13.9502" fill="#7E4239"/>
<circle cx="549.545" cy="91.1621" r="13.9502" fill="#CE1709"/>
<path d="M651.197 204.139H655.085V220.939H651.197V204.139ZM674.48 204.139V220.939H671.288L662.912 210.739V220.939H659.072V204.139H662.288L670.64 214.339V204.139H674.48ZM686.495 221.227C684.783 221.227 683.231 220.859 681.839 220.123C680.463 219.371 679.375 218.339 678.575 217.027C677.791 215.699 677.399 214.203 677.399 212.539C677.399 210.875 677.791 209.387 678.575 208.075C679.375 206.747 680.463 205.715 681.839 204.979C683.231 204.227 684.791 203.851 686.519 203.851C687.975 203.851 689.287 204.107 690.455 204.619C691.639 205.131 692.631 205.867 693.431 206.827L690.935 209.131C689.799 207.819 688.391 207.163 686.711 207.163C685.671 207.163 684.743 207.395 683.927 207.859C683.111 208.307 682.471 208.939 682.007 209.755C681.559 210.571 681.335 211.499 681.335 212.539C681.335 213.579 681.559 214.507 682.007 215.323C682.471 216.139 683.111 216.779 683.927 217.243C684.743 217.691 685.671 217.915 686.711 217.915C688.391 217.915 689.799 217.251 690.935 215.923L693.431 218.227C692.631 219.203 691.639 219.947 690.455 220.459C689.271 220.971 687.951 221.227 686.495 221.227ZM696.056 204.139H699.944V217.771H708.368V220.939H696.056V204.139ZM717.794 221.227C715.394 221.227 713.522 220.563 712.178 219.235C710.85 217.907 710.186 216.011 710.186 213.547V204.139H714.074V213.403C714.074 216.411 715.322 217.915 717.818 217.915C719.034 217.915 719.962 217.555 720.602 216.835C721.242 216.099 721.562 214.955 721.562 213.403V204.139H725.402V213.547C725.402 216.011 724.73 217.907 723.386 219.235C722.058 220.563 720.194 221.227 717.794 221.227ZM734.764 221.227C733.436 221.227 732.148 221.051 730.9 220.699C729.668 220.331 728.676 219.859 727.924 219.283L729.244 216.355C729.964 216.883 730.82 217.307 731.812 217.627C732.804 217.947 733.796 218.107 734.788 218.107C735.892 218.107 736.708 217.947 737.236 217.627C737.764 217.291 738.028 216.851 738.028 216.307C738.028 215.907 737.868 215.579 737.548 215.323C737.244 215.051 736.844 214.835 736.348 214.675C735.868 214.515 735.212 214.339 734.38 214.147C733.1 213.843 732.052 213.539 731.236 213.235C730.42 212.931 729.716 212.443 729.124 211.771C728.548 211.099 728.26 210.203 728.26 209.083C728.26 208.107 728.524 207.227 729.052 206.443C729.58 205.643 730.372 205.011 731.428 204.547C732.5 204.083 733.804 203.851 735.34 203.851C736.412 203.851 737.46 203.979 738.484 204.235C739.508 204.491 740.404 204.859 741.172 205.339L739.972 208.291C738.42 207.411 736.868 206.971 735.316 206.971C734.228 206.971 733.42 207.147 732.892 207.499C732.38 207.851 732.124 208.315 732.124 208.891C732.124 209.467 732.42 209.899 733.012 210.187C733.62 210.459 734.54 210.731 735.772 211.003C737.052 211.307 738.1 211.611 738.916 211.915C739.732 212.219 740.428 212.699 741.004 213.355C741.596 214.011 741.892 214.899 741.892 216.019C741.892 216.979 741.62 217.859 741.076 218.659C740.548 219.443 739.748 220.067 738.676 220.531C737.604 220.995 736.3 221.227 734.764 221.227ZM755.613 217.339H747.813L746.325 220.939H742.341L749.829 204.139H753.669L761.181 220.939H757.101L755.613 217.339ZM754.389 214.387L751.725 207.955L749.061 214.387H754.389ZM753.549 202.843C753.117 202.843 752.733 202.763 752.397 202.603C752.077 202.427 751.717 202.195 751.317 201.907C751.061 201.715 750.845 201.571 750.669 201.475C750.509 201.379 750.349 201.331 750.189 201.331C749.853 201.331 749.581 201.451 749.373 201.691C749.165 201.915 749.053 202.243 749.037 202.675H747.141C747.173 201.603 747.437 200.755 747.933 200.131C748.445 199.491 749.117 199.171 749.949 199.171C750.365 199.171 750.733 199.259 751.053 199.435C751.389 199.595 751.765 199.827 752.181 200.131C752.437 200.323 752.645 200.467 752.805 200.563C752.981 200.659 753.149 200.707 753.309 200.707C753.629 200.707 753.893 200.595 754.101 200.371C754.325 200.131 754.445 199.811 754.461 199.411H756.357C756.325 200.451 756.053 201.283 755.541 201.907C755.045 202.531 754.381 202.843 753.549 202.843ZM770.825 221.227C769.081 221.227 767.505 220.851 766.097 220.099C764.705 219.347 763.609 218.315 762.809 217.003C762.025 215.675 761.633 214.187 761.633 212.539C761.633 210.891 762.025 209.411 762.809 208.099C763.609 206.771 764.705 205.731 766.097 204.979C767.505 204.227 769.081 203.851 770.825 203.851C772.569 203.851 774.137 204.227 775.529 204.979C776.921 205.731 778.017 206.771 778.817 208.099C779.617 209.411 780.017 210.891 780.017 212.539C780.017 214.187 779.617 215.675 778.817 217.003C778.017 218.315 776.921 219.347 775.529 220.099C774.137 220.851 772.569 221.227 770.825 221.227ZM770.825 217.915C771.817 217.915 772.713 217.691 773.513 217.243C774.313 216.779 774.937 216.139 775.385 215.323C775.849 214.507 776.081 213.579 776.081 212.539C776.081 211.499 775.849 210.571 775.385 209.755C774.937 208.939 774.313 208.307 773.513 207.859C772.713 207.395 771.817 207.163 770.825 207.163C769.833 207.163 768.937 207.395 768.137 207.859C767.337 208.307 766.705 208.939 766.241 209.755C765.793 210.571 765.569 211.499 765.569 212.539C765.569 213.579 765.793 214.507 766.241 215.323C766.705 216.139 767.337 216.779 768.137 217.243C768.937 217.691 769.833 217.915 770.825 217.915Z" fill="#BE4137"/>
<circle cx="649.205" cy="67.336" r="13.9502" fill="#AF5043"/>
<circle cx="654.044" cy="100.976" r="13.9502" fill="#F49560"/>
<circle cx="705.006" cy="145.174" r="13.9502" fill="#634A48"/>
<circle cx="663.155" cy="37.0889" r="13.9502" fill="#FF9A24"/>
<circle cx="775.979" cy="54.1114" r="13.9502" fill="#FA6A1A"/>
<circle cx="671.601" cy="131.224" r="13.9502" fill="#3B0A05"/>
<circle cx="724.46" cy="14.1123" r="13.9502" fill="#E43E28"/>
<circle cx="757.866" cy="28.0664" r="13.9502" fill="#601009"/>
<circle cx="691.056" cy="19.7491" r="13.9502" fill="#1C0200"/>
<circle cx="738.411" cy="140.023" r="13.9502" fill="#BE4137"/>
<circle cx="780.262" cy="87.0264" r="13.9502" fill="#7E4239"/>
<circle cx="766.312" cy="119.94" r="13.9502" fill="#CE1709"/>
</svg>
