<svg xmlns="http://www.w3.org/2000/svg" version="1.1" xmlns:xlink="http://www.w3.org/1999/xlink" xmlns:svgjs="http://svgjs.dev/svgjs" viewBox="0 0 1920 1080" class="overflow-hidden rounded-md drop-shadow-lg transition duration-300" style="overflow: hidden; height: 85vh;"><rect width="1920" height="1080" fill="#f7d2ce"/><g clip-path="url(&quot;#SvgjsClipPath3139&quot;)"><g transform="matrix(0.6596129018037029,0.9420248509323405,-0.9420248509323405,0.6596129018037029,822.6153714729971,-684.9732491918448)"><path d="M0,-1080C-7.580227026386574,-1014.9880727505177,-39.913159407334305,-856.3898316180555,-45.48136215831944,-689.9284365031062C-51.04956490930458,-523.467041388157,-52.554428548125,-254.96761525957803,-33.40921650591082,-81.23162931030473C-14.264004463696633,92.50435663896857,71.78139686651171,194.7717213116708,69.38991009496567,352.4874791925336C66.99842332341963,510.2032370733964,-47.18782458911076,712.3781329620987,-47.75813713518707,865.0629179748721C-48.32844968126338,1017.7477029876455,70.40436656345813,1136.7775352749209,65.96803481850782,1268.5961892691741C61.531703073557516,1400.4148432634274,-63.38145513513758,1507.40754015192,-74.37612760488888,1655.9748419403911C-85.37080007464019,1804.5421437288621,-12.39602126748148,2075.9958069900654,0,2160L 1920 2160 L 1920 -1080 Z" fill="url(&quot;#SvgjsLinearGradient3127&quot;)"/><path d="M160,-1080C169.8146658740424,-976.8612715397571,230.6550213368149,-681.7275766805598,218.8879952442544,-461.16762923854264C207.12096915169388,-240.60768179652553,85.32266092658303,14.453523959833603,89.397843444637,243.3596846521028C93.47302596269098,472.265845344372,241.9552863959763,716.4589937725391,243.33909035257824,912.2693349150726C244.7228943091802,1108.079676057606,111.59051557634508,1210.2666206598155,97.70066718424872,1418.2217315073035C83.81081879215235,1626.1768423547915,149.61677786404147,2036.3702885845505,160,2160L 1920 2160 L 1920 -1080 Z" fill="url(&quot;#SvgjsLinearGradient3128&quot;)"/><path d="M320,-1080C306.06057301372465,-995.7688311792672,250.20249324048206,-735.415177483786,236.3634380823479,-574.6129870756032C222.52438292421374,-413.8107966674204,238.92528744808803,-254.0571862501564,236.9656690511951,-115.18685755090289C235.0060506543022,23.683471148350634,214.1309633655559,111.48321720407702,224.60572770099031,258.60898511991786C235.08049203642472,405.7347530357587,298.8126321266965,609.0014545997392,299.8142550638015,767.5677499441421C300.81587800090654,926.1340452885449,233.91961582879162,1048.6287786672813,230.61546532362053,1210.0067571863349C227.31131481844943,1371.3847357053885,265.0919295867117,1577.503413922853,279.9893520327749,1735.8356210584639C294.8867744788381,1894.1678281940747,313.3315586721292,2089.3059368430772,320,2160L 1920 2160 L 1920 -1080 Z" fill="url(&quot;#SvgjsLinearGradient3129&quot;)"/><path d="M480,-1080C466.3979942012846,-978.828561299341,389.1191244128484,-654.1295694045319,398.38796520770734,-472.9713677960462C407.65680600256627,-291.81316618756046,523.1261009026192,-166.00649311407602,535.6130447691537,6.949209650914625C548.0999886356882,179.90491241590524,472.67952778726357,401.04435892371964,473.30962840691444,564.7628487938975C473.9397290265653,728.4813386640755,534.6772783731487,823.4054570571867,539.3936484870588,989.2601488719821C544.1100186009689,1155.1148406867774,511.5067905048849,1364.7676911613335,501.6078490903751,1559.8909996826699C491.7089076758653,1755.0143082040063,483.60130818172917,2059.981833280445,480,2160L 1920 2160 L 1920 -1080 Z" fill="url(&quot;#SvgjsLinearGradient3130&quot;)"/><path d="M640,-1080C645.3240546547171,-998.8300517011654,674.9191319129072,-766.4721891114461,671.9443279283028,-592.9803102069924C668.9695239436983,-419.48843130253863,633.2284562800505,-220.05283664393806,622.1511760923734,-39.04872657327732C611.0738959046962,141.95538349738342,594.1142915057543,297.6103896201232,605.48064680224,493.0443502169721C616.8470020987257,688.4783108138209,672.4694805634567,933.1593674365046,690.3493078712877,1133.555037007816C708.2291351791187,1333.9507065791274,721.1511619611072,1524.3442071461436,712.7596106492259,1695.4183676448408C704.3680593373447,1866.492528143538,652.126601774871,2082.569727940807,640,2160L 1920 2160 L 1920 -1080 Z" fill="url(&quot;#SvgjsLinearGradient3131&quot;)"/><path d="M800,-1080C811.3969466707382,-947.5821428300493,854.5217886306029,-565.4667808196957,868.3816800244291,-285.49285698029587C882.2415714182553,-5.518933140895967,909.3465661888819,330.09849476412063,883.159348362957,599.8435430363993C856.9721305370321,869.5885913086779,725.1182644627057,1072.951356492776,711.2583730688796,1332.9774326533761C697.3984816750534,1593.0035088139762,785.2097288448133,2022.1629054422294,800,2160L 1920 2160 L 1920 -1080 Z" fill="url(&quot;#SvgjsLinearGradient3132&quot;)"/><path d="M960,-1080C950.9344711880734,-982.8519124427349,919.1846849027716,-725.409188296464,905.6068271284403,-497.11147465640937C892.028969354109,-268.8137610163548,866.3684002361051,76.15192758913537,878.532853354012,289.7862818403274C890.6973064719189,503.4206360915194,954.701458632133,585.3043090760483,978.5935458358814,784.6946508507427C1002.4856330396298,984.0849926254372,1024.9843008824826,1256.910774296951,1021.8853765765024,1486.128332488494C1018.7864522705222,1715.3458906800367,970.3142294294171,2047.688055414749,960,2160L 1920 2160 L 1920 -1080 Z" fill="url(&quot;#SvgjsLinearGradient3133&quot;)"/><path d="M1120,-1080C1126.3664616246645,-970.8954605755869,1162.830398249512,-631.5324462546948,1158.198769747987,-425.37276345352086C1153.567141246462,-219.21308065234686,1114.082804021428,-51.194151913915675,1092.2102289908503,156.95809680704417C1070.3376539602725,365.110345528004,1019.0071945047005,587.9022392148881,1026.9633195645201,823.5407288722382C1034.9194446243398,1059.1792185295883,1124.440865943855,1348.0458228965174,1139.9469793497683,1570.7890347511443C1155.4530927556816,1793.5322466057712,1123.3244965582946,2061.7981724585243,1120,2160L 1920 2160 L 1920 -1080 Z" fill="url(&quot;#SvgjsLinearGradient3134&quot;)"/><path d="M1280,-1080C1278.3048671434794,-1002.0939226144152,1271.2541086237102,-778.6895101832624,1269.8292028608762,-612.563535686491C1268.4042970980422,-446.43756118971964,1270.139939405933,-247.0999388462054,1271.450565422996,-83.24415301937174C1272.761191440059,80.61163280746192,1283.0817208668277,233.03135812658658,1277.6929589632543,370.5711792745108C1272.304197059681,508.11100042243504,1253.3219762928152,601.921138594005,1239.1179940015566,741.9947738681738C1224.914011710298,882.0684091423425,1189.9783146702684,1046.0674338965525,1192.4690652157024,1211.0129909195234C1194.9598157611363,1375.9585479424943,1239.4740081434445,1573.5036144925862,1254.0624972741607,1731.6681160059989C1268.650986404877,1889.8326175194115,1275.6770828790268,2088.6113526676663,1280,2160L 1920 2160 L 1920 -1080 Z" fill="url(&quot;#SvgjsLinearGradient3135&quot;)"/><path d="M1440,-1080C1441.7113925276522,-991.2683503077461,1449.9212044426931,-720.1544274853958,1450.2683551659136,-547.6101018464766C1450.615505889134,-375.0657762075574,1445.3324602133582,-221.2731119158674,1442.0829043393232,-44.734046166484845C1438.8333484652883,131.80501958289773,1437.401933038359,338.2783476895748,1430.771019921704,511.62429264981876C1424.140106805049,684.9702376100627,1390.6959361407341,801.7018734260392,1402.297425639394,995.341623594979C1413.898915138054,1188.9813737639188,1494.0961945202291,1479.3530642626204,1500.3799569136634,1673.4627936634572C1506.6637193070976,1867.572523064294,1450.063326152277,2078.910465610576,1440,2160L 1920 2160 L 1920 -1080 Z" fill="url(&quot;#SvgjsLinearGradient3136&quot;)"/><path d="M1600,-1080C1605.3555794893336,-1001.3868755665322,1630.712013843157,-784.5094812646709,1632.1334769360026,-608.3212533991934C1633.5549400288483,-432.133025533716,1605.1103705604385,-221.85848763469525,1608.5287785570738,-22.87063280713545C1611.9471865537091,176.11722202042435,1649.0366907151124,401.73355815758646,1652.6439249158148,585.6058755661653C1656.251159116517,769.4781929747442,1650.027664400016,904.7897123186245,1630.1721837612877,1080.3632716443374C1610.3167031225594,1255.9368309700503,1538.5397383769928,1459.107776794499,1533.5110410834448,1639.0472315204427C1528.4823437898967,1818.9866862463864,1588.9185068472407,2073.1745385867403,1600,2160L 1920 2160 L 1920 -1080 Z" fill="url(&quot;#SvgjsLinearGradient3137&quot;)"/><path d="M1760,-1080C1759.3851386565407,-957.5232519649168,1750.3417532938836,-572.4930332374131,1756.3108319392436,-345.13951178950055C1762.2799105846036,-117.78599034158802,1806.6563964266525,91.80801777240978,1795.8144718721596,284.12112868747516C1784.9725473176668,476.4342396025405,1704.690470584208,604.3089415968853,1691.2592846122861,808.7391537008917C1677.8280986403643,1013.1693658048981,1703.7705701426758,1285.492260261662,1715.2273560406281,1510.7024013115135C1726.6841419385805,1735.912542361365,1752.537892673438,2051.783733551919,1760,2160L 1920 2160 L 1920 -1080 Z" fill="url(&quot;#SvgjsLinearGradient3138&quot;)"/></g></g><defs><linearGradient x1="0.1" y1="0" x2="0" y2="1" id="SvgjsLinearGradient3127"><stop stop-color="#f7d2ce" offset="0"/><stop stop-color="#f7ced1" offset="0"/></linearGradient><linearGradient x1="0.1" y1="0" x2="0" y2="1" id="SvgjsLinearGradient3128"><stop stop-color="#f8d6d3" offset="0"/><stop stop-color="#f8d3d6" offset="0.08333333333333333"/></linearGradient><linearGradient x1="0.1" y1="0" x2="0" y2="1" id="SvgjsLinearGradient3129"><stop stop-color="#f9dbd8" offset="0"/><stop stop-color="#f9d8da" offset="0.16666666666666666"/></linearGradient><linearGradient x1="0.1" y1="0" x2="0" y2="1" id="SvgjsLinearGradient3130"><stop stop-color="#f9e0dd" offset="0"/><stop stop-color="#f9dddf" offset="0.25"/></linearGradient><linearGradient x1="0.1" y1="0" x2="0" y2="1" id="SvgjsLinearGradient3131"><stop stop-color="#fae4e2" offset="0"/><stop stop-color="#fae2e4" offset="0.3333333333333333"/></linearGradient><linearGradient x1="0.1" y1="0" x2="0" y2="1" id="SvgjsLinearGradient3132"><stop stop-color="#fbe9e7" offset="0"/><stop stop-color="#fbe7e8" offset="0.4166666666666667"/></linearGradient><linearGradient x1="0.1" y1="0" x2="0" y2="1" id="SvgjsLinearGradient3133"><stop stop-color="#fcedec" offset="0"/><stop stop-color="#fcecee" offset="0.5"/></linearGradient><linearGradient x1="0.1" y1="0" x2="0" y2="1" id="SvgjsLinearGradient3134"><stop stop-color="#fdf2f0" offset="0"/><stop stop-color="#fdf0f0" offset="0.5833333333333334"/></linearGradient><linearGradient x1="0.1" y1="0" x2="0" y2="1" id="SvgjsLinearGradient3135"><stop stop-color="#fdf6f5" offset="0"/><stop stop-color="#fdf5f5" offset="0.6666666666666666"/></linearGradient><linearGradient x1="0.1" y1="0" x2="0" y2="1" id="SvgjsLinearGradient3136"><stop stop-color="#fefbfa" offset="0"/><stop stop-color="#fefafa" offset="0.75"/></linearGradient><linearGradient x1="0.1" y1="0" x2="0" y2="1" id="SvgjsLinearGradient3137"><stop stop-color="#ffffff" offset="0"/><stop stop-color="#ffffff" offset="0.8333333333333334"/></linearGradient><linearGradient x1="0.1" y1="0" x2="0" y2="1" id="SvgjsLinearGradient3138"><stop stop-color="#ffffff" offset="0"/><stop stop-color="#ffffff" offset="0.9166666666666666"/></linearGradient><clipPath id="SvgjsClipPath3139"><rect width="1920" height="1080"/></clipPath></defs></svg>