<svg width="33" height="39" viewBox="0 0 33 39" fill="none" xmlns="http://www.w3.org/2000/svg">
<path d="M25.5 21.5L28 20L27.5 17L29.5 14.5L27.5 12L28 8.5L25 7.5L24.5 4.5H21.5L19.5 2L16.5 3.5L13.5 2L11.5 4L8 4.5L7.5 7.5L5 9L5.5 12L3.5 14.5L5.5 17.5L5 20.5L8 22M25.5 21.5L24.5 24.5H21.5L19.5 27M25.5 21.5C26.6733 26.3634 27.9005 28.9867 31 33.5H27L25 37.5C22.3198 33.5991 21.1536 31.2755 19.5 27M19.5 27L16.5 26L13.5 27.6023M13.5 27.6023L11.5 25H8.5L8 22M13.5 27.6023C11.7528 31.7874 10.486 33.8981 8 37.5L7 33L2 32.5C4.88361 28.9413 6.16813 26.6188 8 22M16.5 8C20.2305 7.99469 23.287 11.2806 23 15C22.7343 18.4443 19.9545 21.0053 16.5 21C12.9102 20.9945 10 18.0899 10 14.5C10 10.9101 12.9102 8.00511 16.5 8Z" stroke="#BE4137" stroke-width="3" stroke-linecap="round" stroke-linejoin="round"/>
</svg>
