<svg width="1377" height="553" viewBox="0 0 1377 553" fill="none" xmlns="http://www.w3.org/2000/svg">
  <path d="M37.5893 182.64C38.1793 184.825 38.2233 187.156 37.6474 189.362C24.7783 249.084 25.5539 297.503 40.2302 351.834C54.8327 405.893 81.5297 453.754 119.805 493.509C125.124 499.102 124.88 507.957 119.36 513.549C113.766 518.868 104.638 518.697 99.3191 513.104C58.0264 469.77 28.7843 417.909 12.928 359.209C-2.78077 301.056 -3.66628 246.807 9.95599 183.367C11.6615 175.583 19.1884 170.913 26.6997 172.692C32.2778 173.822 36.2618 177.726 37.5893 182.64ZM286.462 534.616C287.2 537.346 287.118 540.297 286.144 543.197C283.472 550.657 275.377 554.308 267.917 551.636C222.393 534.932 183.068 508.643 150.983 473.369C83.5957 399.588 53.6751 289.907 74.6734 191.957C84.6335 145.325 105.1 102.886 135.749 65.6054C140.576 59.6146 149.681 58.6196 155.746 63.7191C161.81 68.8186 162.731 77.6511 157.632 83.7157C129.869 117.58 111.247 156.006 102.365 197.953C83.3969 287.151 110.463 387.35 171.963 454.519C201.104 486.488 236.814 510.237 277.852 525.517C282.265 526.668 285.282 530.247 286.462 534.616ZM569.906 274.961C570.864 278.51 570.458 282.428 568.391 285.623C551.055 315.792 539.232 332.754 511.137 359.97C482.645 387.88 444.346 408.771 400.39 420.645C319.302 442.549 234.499 391.049 211.489 305.866C188.479 220.683 235.817 133.488 316.905 111.584C324.549 109.519 332.178 113.903 334.243 121.548C336.308 129.193 331.924 136.822 324.28 138.887C258.208 156.734 219.837 228.324 238.791 298.491C257.745 368.658 326.944 411.19 393.015 393.343C432.33 382.723 466.282 364.177 491.269 339.558C517.947 313.603 528.08 297.977 543.697 271.201C547.756 264.539 556.22 262.253 563.081 265.965C566.623 268.231 568.947 271.411 569.906 274.961ZM466.518 92.8479C475.294 125.337 474.847 156.217 465.081 184.048C448.495 232.177 410.283 268.571 362.777 281.404C355.133 283.469 347.504 279.085 345.439 271.44C343.374 263.796 347.758 256.167 355.402 254.102C393.898 243.703 424.9 214.237 438.29 174.88C446.159 151.956 446.318 127.599 438.943 100.297C437.173 93.7441 433.403 83.0446 428.542 72.6399C425.186 65.6371 428.183 57.211 435.459 53.7809C442.461 50.4245 450.888 53.4214 454.318 60.6973C461.525 75.4483 465.485 89.0256 466.518 92.8479ZM537.584 132.533C537.879 133.625 537.975 135.064 537.997 136.23C537.71 182.885 529.272 215.631 508.097 253.281C480.472 301.755 435.642 336.422 381.584 351.024C337.354 362.972 291.138 335.03 278.6 288.616C266.063 242.203 291.924 194.791 336.153 182.843C365.367 174.952 382.261 143.145 373.78 111.747C365.298 80.3495 334.687 61.3747 305.473 69.266C202.544 97.0698 142.968 208.369 172.468 317.578C193.413 395.116 255.726 454.449 331.245 468.324C356.236 472.998 383.648 471.452 412.042 463.782C433.338 458.03 466.403 447.047 505.662 418.866C512.023 414.218 520.899 415.629 525.274 422.064C529.922 428.425 528.238 437.375 522.076 441.676C489.924 464.715 456.202 480.855 419.344 490.812C386.581 499.662 355.125 501.421 325.87 496.141C239.888 480.405 168.715 413.213 144.893 325.027C111.337 200.802 179.88 73.8976 297.825 42.0376C342.055 30.0901 388.271 58.032 400.809 104.446C413.346 150.859 387.485 198.271 343.255 210.219C314.042 218.11 297.148 249.917 305.629 281.315C314.111 312.712 344.722 331.687 373.935 323.796C420.622 311.185 459.438 281.365 483.277 239.48C501.935 206.61 509.421 177.93 509.67 136.558C509.59 128.67 516.128 122.51 523.743 122.503C530.391 122.172 536.035 126.799 537.584 132.533Z" fill="#FF9A24" fill-opacity="0.05"/>
  <path d="M1334.33 382.409C1333.86 380.196 1333.94 377.865 1334.64 375.694C1350.77 316.769 1352.65 268.381 1340.98 213.326C1329.37 158.547 1305.34 109.292 1269.3 67.496C1264.3 61.6186 1265.03 52.791 1270.85 47.5102C1276.73 42.5061 1285.83 43.1779 1290.83 49.0553C1329.69 94.5903 1356.04 147.979 1368.65 207.461C1381.14 266.389 1379.04 320.604 1361.96 383.201C1359.83 390.88 1352.06 395.129 1344.65 392.94C1339.15 391.506 1335.38 387.389 1334.33 382.409ZM1105.15 17.3007C1104.57 14.5342 1104.81 11.5916 1105.94 8.74979C1109.02 1.44825 1117.3 -1.75316 1124.61 1.32446C1169.14 20.5029 1206.97 48.9106 1237.07 85.8935C1300.3 163.263 1324.15 274.422 1297.81 371.07C1285.3 417.085 1262.54 458.337 1229.89 493.878C1224.74 499.595 1215.59 500.089 1209.82 494.664C1204.04 489.239 1203.61 480.369 1209.03 474.594C1238.61 442.305 1259.32 404.96 1270.49 363.564C1294.33 275.541 1272.8 174.007 1215.08 103.563C1187.74 70.0426 1153.39 44.3684 1113.25 26.8588C1108.91 25.4666 1106.09 21.7273 1105.15 17.3007ZM807.882 261.002C807.12 257.405 807.741 253.515 809.979 250.439C828.946 221.267 841.683 204.98 871.229 179.347C901.211 153.044 940.599 134.287 985.141 124.844C1067.31 107.426 1149.16 163.504 1167.46 249.822C1185.75 336.139 1133.7 420.604 1051.53 438.023C1043.78 439.665 1036.41 434.868 1034.77 427.122C1033.12 419.376 1037.92 411.999 1045.67 410.357C1112.62 396.164 1154.86 326.788 1139.79 255.687C1124.72 184.585 1057.96 138.317 991.006 152.51C951.167 160.956 916.248 177.609 889.946 200.819C861.884 225.27 850.908 240.317 833.845 266.194C829.426 272.624 820.85 274.442 814.202 270.358C810.79 267.902 808.645 264.598 807.882 261.002ZM901.115 448.516C894.136 415.594 896.278 384.785 907.557 357.532C926.761 310.387 966.913 276.145 1015.05 265.941C1022.8 264.298 1030.18 269.095 1031.82 276.841C1033.46 284.588 1028.66 291.964 1020.92 293.606C981.908 301.876 949.335 329.596 933.804 368.157C924.688 390.615 923.193 414.927 929.058 442.593C930.466 449.233 933.641 460.123 937.924 470.779C940.891 477.955 937.436 486.204 929.983 489.23C922.806 492.197 914.557 488.741 911.532 481.288C905.146 466.164 901.936 452.39 901.115 448.516ZM832.335 404.989C832.101 403.883 832.084 402.441 832.126 401.276C834.974 354.706 845.197 322.473 868.407 286.042C898.652 239.158 945.318 207.005 1000.1 195.393C1044.92 185.891 1089.53 216.329 1099.5 263.361C1109.47 310.393 1081.04 356.313 1036.22 365.815C1006.62 372.09 988.007 402.922 994.751 434.737C1001.5 466.553 1031.02 487.18 1060.62 480.905C1164.92 458.794 1230.52 350.933 1207.06 240.27C1190.4 161.699 1131.44 99.0337 1056.8 81.0335C1032.1 74.9944 1004.65 75.0328 975.874 81.1323C954.295 85.7069 920.677 94.8573 879.93 120.841C873.323 125.132 864.538 123.236 860.523 116.571C856.232 109.964 858.404 101.12 864.793 97.1641C898.161 75.9248 932.719 61.6606 970.068 53.743C1003.27 46.7052 1034.77 46.6756 1063.69 53.5537C1148.68 73.9863 1216.06 144.985 1235 234.346C1261.69 360.226 1186.28 483.176 1066.76 508.512C1021.94 518.013 977.332 487.576 967.362 440.544C957.392 393.512 985.817 347.591 1030.64 338.09C1060.24 331.815 1078.85 300.983 1072.11 269.167C1065.36 237.351 1035.84 216.724 1006.24 223C958.929 233.029 918.535 260.672 892.432 301.186C871.998 332.981 862.948 361.207 860.428 402.503C860.075 410.384 853.208 416.176 845.605 415.764C838.948 415.729 833.567 410.799 832.335 404.989Z" fill="#FF9A24" fill-opacity="0.05"/>
  </svg>