<svg width="37" height="49" viewBox="0 0 37 49" fill="none" xmlns="http://www.w3.org/2000/svg">
  <path d="M26.6485 32.3586C20.7468 32.3586 27.3862 23.5061 18.9026 22.0307C10.0501 22.7684 16.3206 32.3586 10.0501 32.3586M26.6485 32.3586C28.1389 32.3586 29.0176 31.3235 29.3383 29.7762M26.6485 32.3586C30.7058 33.8336 30.337 37.5221 26.6485 38.6287M26.6485 32.3586C22.9599 33.4648 22.9599 37.1533 26.6485 38.6287M10.0501 32.3586C8.77483 32.3586 7.99445 31.3237 7.709 29.7762M10.0501 32.3586C6.73043 34.2025 6.73043 37.1533 10.0501 38.6287M10.0501 32.3586C13.7386 34.2025 13.7386 37.1533 10.0501 38.6287M18.9026 16.129V2.1123M18.9026 16.129C20.102 16.129 21.2105 16.3645 22.2222 16.7786M18.9026 16.129C17.7002 16.0488 16.5936 16.1777 15.5829 16.4711M18.9026 2.1123L27.0173 7.82952M18.9026 2.1123L10.6034 7.82952M2.3042 13.5467L10.6034 7.82952M2.3042 13.5467L12.1387 18.3418M2.3042 13.5467V22.0307M7.709 29.7762L2.3042 24.6123V22.0307M7.709 29.7762C7.32552 27.6974 7.83522 24.6935 9.23809 22.0307M35.1321 13.5467L27.0173 7.82952M35.1321 13.5467L25.1937 18.7107M35.1321 13.5467V22.0307M29.3383 29.7762L35.1321 24.6123V22.0307M29.3383 29.7762C29.7692 27.6967 29.1919 24.6918 27.7362 22.0307M27.0173 7.82952L22.2222 16.7786M22.2222 16.7786C23.3316 17.2327 24.3246 17.9016 25.1937 18.7107M10.6034 7.82952L15.5829 16.4711M15.5829 16.4711C14.2742 16.851 13.1262 17.5067 12.1387 18.3418M12.1387 18.3418C10.932 19.3624 9.96511 20.6507 9.23809 22.0307M25.1937 18.7107C26.2174 19.6637 27.0691 20.8111 27.7362 22.0307M35.1321 22.0307H27.7362M2.3042 22.0307H9.23809M10.0501 38.6287C13.7386 40.8418 13.3698 43.7926 10.0501 47.1123C7.09928 43.7926 6.73043 40.8418 10.0501 38.6287ZM26.6485 38.6287C23.3288 40.473 22.9599 43.0549 26.6485 47.1123C29.9681 43.4238 29.9681 40.473 26.6485 38.6287Z" stroke="#BE4137" stroke-width="3" stroke-linecap="round" stroke-linejoin="round"/>
  </svg>
