<svg width="160" height="30" viewBox="0 0 160 30" fill="none" xmlns="http://www.w3.org/2000/svg">
  <path d="M18.4627 11.8109L14.9226 0.15625L11.3825 11.8109H0.354248L9.3575 18.2356L5.93393 29.293L14.9226 22.4604L23.9259 29.293L20.5023 18.2356L29.491 11.8109H18.4627Z" fill="#BE4137"/>
  <path d="M50.7243 11.8109L47.1842 0.15625L43.6441 11.8109H32.6158L41.6191 18.2356L38.1955 29.293L47.1842 22.4604L56.1875 29.293L52.7639 18.2356L61.7526 11.8109H50.7243Z" fill="#BE4137"/>
  <path d="M82.9858 11.8109L79.4457 0.15625L75.9056 11.8109H64.8773L73.8806 18.2356L70.457 29.293L79.4457 22.4604L88.4489 29.293L85.0254 18.2356L94.0141 11.8109H82.9858Z" fill="#BE4137"/>
  <path d="M115.489 11.8109L111.949 0.15625L108.409 11.8109H97.3807L106.384 18.2356L102.96 29.293L111.949 22.4604L120.952 29.293L117.529 18.2356L126.517 11.8109H115.489Z" fill="#BE4137"/>
  <path d="M147.993 11.8109L144.453 0.15625L140.912 11.8109H129.884L138.887 18.2356L135.464 29.293L144.453 22.4604L153.456 29.293L150.032 18.2356L159.021 11.8109H147.993Z" fill="#BE4137"/>
  </svg>