<svg width="33" height="33" viewBox="0 0 33 33" fill="none" xmlns="http://www.w3.org/2000/svg">
<circle cx="16.751" cy="16.98" r="16" fill="url(#paint0_linear_586_1530)"/>
<path d="M22.6487 6.00146V26.3147H19.254V24.0791C18.8308 24.8519 18.2236 25.4591 17.4324 25.9007C16.6413 26.3239 15.7397 26.5355 14.7277 26.5355C13.5317 26.5355 12.4645 26.2319 11.5262 25.6247C10.5878 25.0175 9.85179 24.1619 9.3182 23.0579C8.80301 21.9356 8.54541 20.6568 8.54541 19.2216C8.54541 17.7864 8.80301 16.5261 9.3182 15.4405C9.83339 14.3549 10.5602 13.5177 11.4986 12.9289C12.4369 12.3217 13.5133 12.0182 14.7277 12.0182C15.7213 12.0182 16.6045 12.2297 17.3772 12.6529C18.1684 13.0577 18.7756 13.6373 19.1988 14.3917V6.00146H22.6487ZM15.6385 23.8307C16.7793 23.8307 17.6624 23.4351 18.288 22.6439C18.932 21.8528 19.254 20.7304 19.254 19.2768C19.254 17.8232 18.9412 16.7009 18.3156 15.9097C17.69 15.1185 16.8069 14.7229 15.6661 14.7229C14.5069 14.7229 13.6053 15.1185 12.9613 15.9097C12.3357 16.6825 12.0229 17.7864 12.0229 19.2216C12.0229 20.6752 12.3357 21.8068 12.9613 22.6163C13.6053 23.4259 14.4977 23.8307 15.6385 23.8307Z" fill="#CA4237"/>
<path d="M22.1529 5.85986V26.1731H18.7582V23.9375C18.335 24.7103 17.7278 25.3175 16.9366 25.7591C16.1454 26.1823 15.2438 26.3939 14.2318 26.3939C13.0359 26.3939 11.9687 26.0903 11.0303 25.4831C10.0919 24.8759 9.35594 24.0203 8.82235 22.9163C8.30716 21.794 8.04956 20.5152 8.04956 19.08C8.04956 17.6448 8.30716 16.3845 8.82235 15.2989C9.33754 14.2133 10.0643 13.3761 11.0027 12.7873C11.9411 12.1801 13.0175 11.8766 14.2318 11.8766C15.2254 11.8766 16.1086 12.0881 16.8814 12.5113C17.6726 12.9161 18.2798 13.4957 18.703 14.2501V5.85986H22.1529ZM15.1426 23.6891C16.2834 23.6891 17.1666 23.2935 17.7922 22.5023C18.4362 21.7112 18.7582 20.5888 18.7582 19.1352C18.7582 17.6816 18.4454 16.5593 17.8198 15.7681C17.1942 14.9769 16.311 14.5813 15.1702 14.5813C14.011 14.5813 13.1095 14.9769 12.4655 15.7681C11.8399 16.5409 11.5271 17.6448 11.5271 19.08C11.5271 20.5336 11.8399 21.6652 12.4655 22.4747C13.1095 23.2843 14.0018 23.6891 15.1426 23.6891Z" fill="white"/>
<defs>
<linearGradient id="paint0_linear_586_1530" x1="4.89369" y1="4.47595" x2="29.7408" y2="23.8642" gradientUnits="userSpaceOnUse">
<stop stop-color="#BC4F44"/>
<stop offset="0.354167" stop-color="#DE765B"/>
<stop offset="0.703125" stop-color="#EA885E"/>
<stop offset="1" stop-color="#ECA469"/>
</linearGradient>
</defs>
</svg>
