<svg width="32" height="45" viewBox="0 0 32 45" fill="none" xmlns="http://www.w3.org/2000/svg">
  <path d="M15.7501 9.00004C18.2354 9.00004 20.2501 6.98531 20.2501 4.50002C20.2501 2.01473 18.2354 0 15.7501 0C13.2648 0 11.2501 2.01473 11.2501 4.50002C11.2501 6.98531 13.2648 9.00004 15.7501 9.00004Z" fill="#BE4137"/>
  <path d="M30.496 24.704C31.0485 24.7506 31.5001 24.2988 31.5001 23.7443V21.2631C31.5001 20.7057 31.0435 20.2603 30.4881 20.2135C27.3678 19.9508 24.3328 18.3258 22.3426 16.1325L19.4401 12.915C19.0691 12.5004 18.6135 12.1704 18.1144 11.9251C18.0836 11.91 18.0568 11.8799 18.0226 11.8799V11.8799V11.8799C18.0078 11.8799 17.9933 11.8761 17.9805 11.8688C17.1977 11.4262 16.3044 11.2057 15.3226 11.2949C12.9601 11.4974 11.25 13.59 11.25 15.9525V29.25C11.25 31.725 13.2751 33.75 15.7501 33.75H26.0001C26.5524 33.75 27.0001 34.1977 27.0001 34.75V44.0001C27.0001 44.5524 27.4478 45.0001 28.0001 45.0001H30.5001C31.0524 45.0001 31.5001 44.5524 31.5001 44.0001V32.625C31.5001 30.15 29.4751 28.125 27.0001 28.125H21.2501C20.6978 28.125 20.2501 27.6773 20.2501 27.125V22.4912C20.2501 21.6444 21.256 21.1584 21.9664 21.6192C24.4517 23.2315 27.5562 24.4557 30.496 24.704ZM18.3247 36C17.9009 36 17.5297 36.2707 17.347 36.6532C16.2646 38.9195 13.9455 40.5001 11.25 40.5001C7.51503 40.5001 4.50002 37.485 4.50002 33.75C4.50002 31.0519 6.08373 28.7497 8.35371 27.6546C8.7329 27.4717 9.00004 27.1021 9.00004 26.681V23.9469C9.00004 23.3152 8.41938 22.8399 7.81757 23.032C3.2868 24.4784 0 28.732 0 33.75C0 39.9601 5.04002 45.0001 11.25 45.0001C16.268 45.0001 20.5217 41.7133 21.9681 37.1825C22.1602 36.5807 21.6849 36 21.0532 36H18.3247Z" fill="#BE4137"/>
  </svg>
