<svg width="37" height="39" viewBox="0 0 37 39" fill="none" xmlns="http://www.w3.org/2000/svg">
<path d="M27.0345 6.51613L27.5576 7.92197C27.9808 7.76448 28.3106 7.42466 28.4554 6.99684C28.6001 6.56903 28.5444 6.09878 28.3037 5.71664L27.0345 6.51613ZM34.6876 12.8055C34.3224 12.0619 33.4236 11.7552 32.68 12.1204C31.9364 12.4856 31.6297 13.3844 31.9949 14.128L34.6876 12.8055ZM25.4588 1.20051C25.0173 0.499562 24.0911 0.289275 23.3902 0.73082C22.6892 1.17237 22.4789 2.09854 22.9205 2.79949L25.4588 1.20051ZM21.9597 6.80383C21.1833 7.09272 20.788 7.95632 21.0769 8.73275C21.3658 9.50917 22.2294 9.9044 23.0058 9.61552L21.9597 6.80383ZM18.2931 11.0323C18.2931 10.2038 17.6215 9.53226 16.7931 9.53226C15.9647 9.53226 15.2931 10.2038 15.2931 11.0323H18.2931ZM16.7931 21.7581H15.2931C15.2931 22.3279 15.616 22.8486 16.1265 23.1018L16.7931 21.7581ZM25.2299 27.6179C25.9721 27.9861 26.8721 27.6829 27.2403 26.9408C27.6084 26.1987 27.3053 25.2986 26.5632 24.9305L25.2299 27.6179ZM33.5 20.629C33.5 28.831 26.7954 35.5 18.5 35.5V38.5C28.43 38.5 36.5 30.51 36.5 20.629H33.5ZM18.5 35.5C10.2046 35.5 3.5 28.831 3.5 20.629H0.5C0.5 30.51 8.57 38.5 18.5 38.5V35.5ZM3.5 20.629C3.5 12.4271 10.2046 5.75806 18.5 5.75806V2.75806C8.57 2.75806 0.5 10.7481 0.5 20.629H3.5ZM18.5 5.75806C21.119 5.75806 24.1381 6.63381 26.311 7.83014L27.7579 5.20212C25.1943 3.79071 21.6818 2.75806 18.5 2.75806V5.75806ZM31.9949 14.128C32.9587 16.0905 33.5 18.2951 33.5 20.629H36.5C36.5 17.8259 35.8489 15.1698 34.6876 12.8055L31.9949 14.128ZM28.3037 5.71664L25.4588 1.20051L22.9205 2.79949L25.7653 7.31562L28.3037 5.71664ZM23.0058 9.61552L27.5576 7.92197L26.5114 5.11028L21.9597 6.80383L23.0058 9.61552ZM15.2931 11.0323V21.7581H18.2931V11.0323H15.2931ZM16.1265 23.1018L25.2299 27.6179L26.5632 24.9305L17.4597 20.4143L16.1265 23.1018Z" fill="#BE4137"/>
</svg>
