<svg width="44" height="45" viewBox="0 0 44 45" fill="none" xmlns="http://www.w3.org/2000/svg">
  <path d="M22.3042 3.10449V41.9399M22.3042 3.10449C27.8521 0.638649 32.1672 2.48786 34.0165 6.8031C40.787 9.76583 42.0383 16.2139 39.3658 20.3647M22.3042 3.10449C16.7563 0.638649 12.4412 2.48917 10.5919 6.8031C4.42762 8.65329 0.728957 13.5848 4.42758 20.3647C0.112583 24.0633 1.96191 30.8436 6.74192 32.0765M22.3042 41.9399C28.0838 44.0624 30.0564 43.0695 32.1672 38.8577C37.0987 40.0901 40.7973 35.7751 39.3658 31.3525M22.3042 41.9399C17.3727 43.7901 14.9944 42.7128 12.4412 39.4741C8.52711 38.5713 6.81887 35.3153 6.74192 32.0765M33.4 24.0633C36.1058 23.677 38.1451 22.2605 39.3658 20.3647M11.2084 24.6797C8.3702 25.3109 6.66132 28.6842 6.74192 32.0765M39.3658 20.3647C42.8461 23.6918 42.9099 28.4846 39.3658 31.3525M35.2494 33.3094C36.9429 32.886 38.3134 32.2041 39.3658 31.3525" stroke="#BE4137" stroke-width="3" stroke-linecap="round" stroke-linejoin="round"/>
  <path d="M17.3728 14.2C16.7564 17.8986 13.0578 19.1315 9.97559 18.5151M28.4686 9.26855C27.2358 12.3507 30.318 15.4329 33.4001 14.8165M12.4413 32.0766C14.2906 31.4602 17.3728 32.6931 17.3728 35.1588" stroke="#BE4137" stroke-width="2" stroke-linecap="round" stroke-linejoin="round"/>
  </svg>