<svg width="64" height="37" viewBox="0 0 64 37" fill="none" xmlns="http://www.w3.org/2000/svg">
  <path d="M10.1939 22.273C9.04404 23.1328 8.28439 24.3545 8.28439 25.8295C1.28293 25.194 0.00993897 34.7414 5.73841 35.377H23.5603C30.3483 33.8113 28.5691 27.1046 24.1967 26.1507M10.1939 22.273C15.2858 -7.27116 64.2959 -4.72509 61.7499 35.377H54.7485M10.1939 22.273C12.0344 20.8966 14.8746 20.4475 17.1992 21.3711M24.1967 26.1507C23.2393 25.9419 22.1576 26.0089 21.0143 26.466C20.5938 23.7332 19.0621 22.1113 17.1992 21.3711M24.1967 26.1507C28.0157 11.8237 48.3835 15.0062 47.747 35.377H54.7485M54.7485 35.377C56.0215 6.73172 26.7427 2.27626 17.1992 21.3711" stroke="#BE4137" stroke-width="3" stroke-linecap="round" stroke-linejoin="round"/>
  </svg>