<svg width="27" height="39" viewBox="0 0 27 39" fill="none" xmlns="http://www.w3.org/2000/svg">
<path d="M24.6781 18.0922C22.9842 23.8726 18.8172 30.4536 13.4116 36.6921C8.02851 30.0701 3.95833 23.3658 2.30444 17.5921C1.42447 14.5201 1.25894 11.8165 1.84509 9.56474C2.41975 7.35712 3.74409 5.47052 6.08651 4.01651C10.407 1.33469 16.2678 1.42008 20.6266 4.12637C23.1212 5.67528 24.5231 7.65921 25.1319 9.93825C25.7517 12.2585 25.581 15.0111 24.6781 18.0922ZM19.8304 14.227C20.0637 10.6122 17.0636 7.73934 13.4542 7.54563C9.63924 7.3409 6.04809 10.3743 6.29669 14.227C6.52887 17.8253 9.85302 20.3433 13.4542 20.15C16.8364 19.9685 19.6138 17.5847 19.8304 14.227Z" fill="#BE4137" stroke="#BE4137" stroke-width="3" stroke-linecap="round" stroke-linejoin="round"/>
</svg>
