<svg width="32" height="45" viewBox="0 0 32 45" fill="none" xmlns="http://www.w3.org/2000/svg">
  <path d="M13.9452 0.120792C13.2438 -0.113368 12.4781 0.127835 11.989 0.682336C10.5285 2.33795 9.57236 3.5949 8.45894 5.47331C8.18163 5.94116 8.34193 6.54548 8.81686 6.81047C10.0635 7.50603 11.0657 7.94469 12.5405 8.45611C12.9121 8.58498 13.3253 8.47795 13.5885 8.18569C14.9953 6.62378 15.893 5.43209 16.9013 3.82744C17.4548 2.94675 17.2106 1.77445 16.3211 1.23532C15.5015 0.738594 14.7824 0.400302 13.9452 0.120792Z" fill="#BE4137"/>
  <path d="M17.6944 4.07245C18.3289 3.30355 19.4517 3.13457 20.2511 3.73018C21.0545 4.32877 21.7209 4.93096 22.4644 5.74034C23.041 6.36791 23.1094 7.30759 22.648 8.02408C21.7183 9.46795 20.8789 10.5526 19.6246 11.9694C19.2521 12.3903 18.6022 12.4125 18.2421 11.981C17.6734 11.2997 17.2748 10.6604 17.0103 10.3898C16.7303 10.1035 15.8778 9.88283 14.9994 9.40371C14.5471 9.15702 14.4475 8.57701 14.7275 8.14457C15.7485 6.56754 16.5671 5.43856 17.6944 4.07245Z" fill="#BE4137"/>
  <path d="M23.0175 8.82151C23.7047 8.03381 24.8965 7.90753 25.6875 8.5908C26.2096 9.0417 26.6591 9.47675 27.1173 9.97261C27.7797 10.6895 27.7516 11.7924 27.1077 12.526C25.1729 14.7307 23.7707 16.2845 21.6708 18.5455C21.4028 18.834 20.9884 18.9403 20.6186 18.805C19.4025 18.3601 18.5692 17.9381 17.5744 17.2568C17.1215 16.9465 17.0318 16.3197 17.3588 15.8787C19.3951 13.1321 20.8631 11.2912 23.0175 8.82151Z" fill="#BE4137"/>
  <path d="M27.5086 13.4105C28.2902 12.6202 29.589 12.6341 30.2782 13.5063C30.5672 13.872 30.8395 14.2514 31.1239 14.6873C31.637 15.4736 31.4656 16.5133 30.762 17.1349C28.8938 18.785 27.4752 19.8988 25.3732 21.4641C25.0535 21.7021 24.6202 21.7302 24.2844 21.5154C23.5594 21.0517 23.0745 20.6258 22.5694 20.0239C22.2673 19.6639 22.2942 19.1371 22.6035 18.7833C24.4698 16.6483 25.7812 15.1572 27.5086 13.4105Z" fill="#BE4137"/>
  <path d="M29.0253 20.2054C29.3592 20.0022 29.7843 20.2436 29.7679 20.6341C29.6354 23.8026 28.8968 26.8823 28.3458 27.7839C27.7814 28.7075 26.3396 29.9419 25.3964 31.6261C25.2688 31.8539 25.2018 32.1098 25.1838 32.3703C24.9273 36.0841 24.8986 38.4396 25.0563 42.27C25.0755 42.7383 24.769 43.1586 24.3165 43.2808L19.6218 44.5491C19.2887 44.6391 18.9666 44.3725 18.9929 44.0283L20.2122 28.0442C20.2465 27.5946 20.1273 27.1457 19.8746 26.7722C17.8278 23.7475 16.6059 21.9734 14.874 18.7113C14.6943 18.3729 14.9506 17.9695 15.3324 18.0024C18.068 18.238 20.0076 19.1579 23.6235 21.9549C24.2885 22.4693 25.2035 22.532 25.9216 22.0948L29.0253 20.2054Z" fill="#BE4137"/>
  <path d="M17.4104 14.1896C17.7139 13.8199 17.8499 13.3274 17.7208 12.8669C17.5945 12.4163 17.3842 12.033 17.0191 11.5615C16.8586 11.3542 16.6492 11.1902 16.4164 11.0696C13.6667 9.64615 11.7652 8.76558 8.60431 7.53621C7.85584 7.2451 7.00343 7.43707 6.4556 8.0243C4.13845 10.5081 2.70915 12.332 0.898385 15.1614C0.497701 15.7875 0.489584 16.5867 0.86911 17.2258C3.58631 21.8017 5.55454 24.7658 9.31183 29.6376C9.61059 30.025 9.76007 30.5099 9.72593 30.9979C9.44447 35.0217 9.11128 37.5598 8.20544 41.3543C8.0777 41.8894 8.39954 42.4314 8.93248 42.5677L17.0369 44.6398C17.3377 44.7167 17.6351 44.5038 17.6593 44.1942L18.8926 28.37C18.9229 27.9808 18.8383 27.59 18.6491 27.2485C16.5939 23.5388 15.1968 21.2396 12.6314 17.353C12.4984 17.1515 12.3295 16.9742 12.1322 16.8351C11.3167 16.2601 10.6392 15.8536 9.37612 15.2951C8.93086 15.0982 8.69669 14.5614 8.96909 14.1579V14.1579C9.20826 13.8036 9.68392 13.7464 10.0577 13.9537C13.3648 15.7875 15.3893 16.6518 17.4104 14.1896Z" fill="#BE4137"/>
  </svg>