<svg width="57" height="32" viewBox="0 0 57 32" fill="none" xmlns="http://www.w3.org/2000/svg">
<path d="M7.78415 4.21387C7.27809 5.92696 5.92739 7.27766 4.21429 7.78372V4.21387H7.78415Z" fill="#BE4137" stroke="#BE4137" stroke-width="3"/>
<path d="M52.7858 7.78372C51.0727 7.27766 49.722 5.92696 49.2159 4.21387L52.7858 4.21387L52.7858 7.78372Z" fill="#BE4137" stroke="#BE4137" stroke-width="3"/>
<path d="M49.2159 27C49.722 25.2869 51.0727 23.9362 52.7858 23.4301L52.7858 27L49.2159 27Z" fill="#BE4137" stroke="#BE4137" stroke-width="3"/>
<path d="M4.21429 23.4301C5.92739 23.9362 7.27809 25.2869 7.78415 27L4.21429 27L4.21429 23.4301Z" fill="#BE4137" stroke="#BE4137" stroke-width="3"/>
<path d="M31.8077 11.2692C32.0353 12.0658 32.8655 12.527 33.6621 12.2994C34.4586 12.0718 34.9199 11.2416 34.6923 10.4451C33.9399 7.81171 31.6116 6.40947 29.3214 5.95879V5.42857C29.3214 4.60014 28.6499 3.92857 27.8214 3.92857C26.993 3.92857 26.3214 4.60014 26.3214 5.42857V5.90062C25.3834 6.05314 24.4735 6.37526 23.6951 6.89859C22.4432 7.74019 21.5714 9.08968 21.5714 10.8571C21.5714 12.7128 22.4503 14.0035 23.6494 14.8828C24.4462 15.4671 25.4049 15.8848 26.3214 16.2212V21.8176C25.9411 21.7022 25.6034 21.5538 25.327 21.3823C24.7203 21.006 24.5714 20.6436 24.5714 20.3571C24.5714 19.5287 23.8999 18.8571 23.0714 18.8571C22.243 18.8571 21.5714 19.5287 21.5714 20.3571C21.5714 22.0159 22.5842 23.2114 23.7458 23.9318C24.5062 24.4034 25.398 24.7239 26.3214 24.904V25.7857C26.3214 26.6141 26.993 27.2857 27.8214 27.2857C28.6499 27.2857 29.3214 26.6141 29.3214 25.7857V25.0092C30.3736 24.8786 31.4191 24.5616 32.3183 24.0066C33.7301 23.1352 34.75 21.6793 34.75 19.6786C34.75 17.631 33.6852 16.2971 32.3469 15.4288C31.4401 14.8404 30.3367 14.4215 29.3214 14.0747V9.03903C30.5697 9.42236 31.5107 10.2296 31.8077 11.2692ZM25.3689 9.38826C25.6289 9.21348 25.9518 9.06911 26.3214 8.96653V12.9808C25.9789 12.8202 25.6793 12.6512 25.4235 12.4636C24.8542 12.0461 24.5714 11.595 24.5714 10.8571C24.5714 10.1931 24.8553 9.73349 25.3689 9.38826ZM29.3214 21.9744V17.2657C29.8536 17.473 30.3186 17.6889 30.714 17.9454C31.4268 18.4079 31.75 18.8912 31.75 19.6786C31.75 20.5129 31.3819 21.0591 30.7426 21.4538C30.3558 21.6925 29.868 21.8703 29.3214 21.9744ZM55.5 2V29.2143C55.5 29.4904 55.2761 29.7143 55 29.7143H2C1.72386 29.7143 1.5 29.4904 1.5 29.2143V2C1.5 1.72386 1.72386 1.5 2 1.5H55C55.2761 1.5 55.5 1.72385 55.5 2Z" stroke="#BE4137" stroke-width="3" stroke-linecap="round" stroke-linejoin="round"/>
</svg>
