<svg width="45" height="49" viewBox="0 0 45 49" fill="none" xmlns="http://www.w3.org/2000/svg">
  <path fill-rule="evenodd" clip-rule="evenodd" d="M23.4256 34.9837C30.5555 34.9837 36.3354 29.2038 36.3354 22.0739C36.3354 14.944 30.5555 9.16406 23.4256 9.16406C16.2957 9.16406 10.5157 14.944 10.5157 22.0739C10.5157 29.2038 16.2957 34.9837 23.4256 34.9837ZM23.4256 31.2952C28.5184 31.2952 32.6469 27.1667 32.6469 22.0739C32.6469 16.9811 28.5184 12.8526 23.4256 12.8526C18.3328 12.8526 14.2043 16.9811 14.2043 22.0739C14.2043 27.1667 18.3328 31.2952 23.4256 31.2952Z" fill="#BE4137"/>
  <path d="M24.9255 33.8773C24.9255 33.0488 24.254 32.3773 23.4255 32.3773C22.5971 32.3773 21.9255 33.0488 21.9255 33.8773H24.9255ZM21.9255 46.7871C21.9255 47.6155 22.5971 48.2871 23.4255 48.2871C24.254 48.2871 24.9255 47.6155 24.9255 46.7871H21.9255ZM17.5239 40.1232C16.6955 40.1232 16.0239 40.7947 16.0239 41.6232C16.0239 42.4516 16.6955 43.1232 17.5239 43.1232V40.1232ZM29.3272 43.1232C30.1556 43.1232 30.8272 42.4516 30.8272 41.6232C30.8272 40.7947 30.1556 40.1232 29.3272 40.1232V43.1232ZM30.8485 12.5297C30.2627 13.1155 30.2627 14.0653 30.8485 14.6511C31.4343 15.2368 32.384 15.2368 32.9698 14.6511L30.8485 12.5297ZM42.9747 2.52482H44.4747C44.4747 1.69639 43.8031 1.02482 42.9747 1.02482V2.52482ZM41.4747 12.115C41.4747 12.9434 42.1463 13.615 42.9747 13.615C43.8031 13.615 44.4747 12.9434 44.4747 12.115H41.4747ZM33.3845 1.02482C32.5561 1.02482 31.8845 1.69639 31.8845 2.52482C31.8845 3.35325 32.5561 4.02482 33.3845 4.02482V1.02482ZM13.5124 15.0199C14.0982 15.6057 15.0479 15.6057 15.6337 15.0199C16.2195 14.4341 16.2195 13.4844 15.6337 12.8986L13.5124 15.0199ZM2.40094 1.78711L2.40094 0.28711C1.57251 0.28711 0.90094 0.958683 0.90094 1.78711L2.40094 1.78711ZM11.9911 3.28711C12.8195 3.28711 13.4911 2.61554 13.4911 1.78711C13.4911 0.958682 12.8195 0.287109 11.9911 0.287109L11.9911 3.28711ZM0.90094 11.3773C0.90094 12.2057 1.57251 12.8773 2.40094 12.8773C3.22937 12.8773 3.90094 12.2057 3.90094 11.3773L0.90094 11.3773ZM6.87307 12.5297C6.28728 13.1155 6.28728 14.0653 6.87307 14.6511C7.45885 15.2368 8.4086 15.2368 8.99439 14.6511L6.87307 12.5297ZM14.896 8.74941C15.4818 8.16363 15.4818 7.21388 14.896 6.62809C14.3102 6.04231 13.3605 6.04231 12.7747 6.62809L14.896 8.74941ZM21.9255 33.8773V41.6232H24.9255V33.8773H21.9255ZM21.9255 41.6232V46.7871H24.9255V41.6232H21.9255ZM17.5239 43.1232H23.4255V40.1232H17.5239V43.1232ZM23.4255 43.1232H29.3272V40.1232H23.4255V43.1232ZM32.9698 14.6511L44.0354 3.58548L41.914 1.46416L30.8485 12.5297L32.9698 14.6511ZM41.4747 2.52482V12.115H44.4747V2.52482H41.4747ZM42.9747 1.02482H33.3845V4.02482H42.9747V1.02482ZM15.6337 12.8986L12.1296 9.39449L10.0083 11.5158L13.5124 15.0199L15.6337 12.8986ZM12.1296 9.39449L3.4616 0.72645L1.34028 2.84777L10.0083 11.5158L12.1296 9.39449ZM2.40094 3.28711L11.9911 3.28711L11.9911 0.287109L2.40094 0.28711L2.40094 3.28711ZM0.90094 1.78711L0.90094 11.3773L3.90094 11.3773L3.90094 1.78711L0.90094 1.78711ZM8.99439 14.6511L12.1296 11.5158L10.0083 9.39449L6.87307 12.5297L8.99439 14.6511ZM12.1296 11.5158L14.896 8.74941L12.7747 6.62809L10.0083 9.39449L12.1296 11.5158Z" fill="#BE4137"/>
  </svg>
