<svg width="59" height="43" viewBox="0 0 59 43" fill="none" xmlns="http://www.w3.org/2000/svg">
  <path d="M5.98278 16.6066C4.69929 17.9476 3.51933 19.4232 2.46334 21.0317C2.25782 21.3447 2.25222 21.7484 2.44972 22.0666C7.23555 29.7761 15.5023 34.6802 24.4955 36.058M5.98278 16.6066L24.4955 36.058M5.98278 16.6066C7.58919 14.9281 9.35778 13.4603 11.2484 12.2066M24.4955 36.058C27.9203 36.5826 31.4503 36.5959 34.9337 36.058M11.2484 12.2066L34.9337 36.058M11.2484 12.2066C17.0922 8.33163 24.1021 6.50145 31.0941 6.8141C32.9355 6.89643 34.7756 7.12739 36.5929 7.50876C44.4342 9.1543 51.8495 13.6002 57.1014 20.9901C57.3381 21.3232 57.3396 21.77 57.1057 22.1052C51.3876 30.3 43.2954 34.7666 34.9337 36.058M10.3818 1.95312L18.8134 10.4555M49.0569 40.9531L40.6254 32.4508M24.4955 16.1854C28.2777 13.1583 32.7225 13.7619 35.3099 16.1854C37.8972 18.6088 38.8738 22.8241 35.3099 27.0906M24.4955 16.1854L35.3099 27.0906M24.4955 16.1854L18.8134 10.4555M35.3099 27.0906L40.6254 32.4508M18.8134 10.4555C28.227 4.15864 36.5929 7.44608 40.6254 11.1081C44.6579 14.77 47.2781 24.9116 40.6254 32.4508" stroke="#BE4137" stroke-width="3" stroke-linecap="round"/>
  </svg>