<svg width="467" height="68" viewBox="0 0 467 68" fill="none" xmlns="http://www.w3.org/2000/svg">
<path d="M45.0372 3.3252V67.2534H34.3535V60.2178C33.0217 62.6499 31.1108 64.5608 28.6208 65.9505C26.1309 67.2824 23.2935 67.9483 20.1086 67.9483C16.3447 67.9483 12.9862 66.9928 10.033 65.0819C7.07979 63.171 4.76355 60.4784 3.08427 57.0041C1.46291 53.4718 0.652222 49.4473 0.652222 44.9307C0.652222 40.414 1.46291 36.4474 3.08427 33.031C4.70564 29.6145 6.99293 26.9798 9.94613 25.1268C12.8993 23.2159 16.2868 22.2605 20.1086 22.2605C23.2356 22.2605 26.0151 22.9264 28.4471 24.2582C30.9371 25.5321 32.848 27.3562 34.1798 29.7303V3.3252H45.0372ZM22.975 59.4361C26.5652 59.4361 29.3446 58.1911 31.3134 55.7012C33.3402 53.2112 34.3535 49.6789 34.3535 45.1044C34.3535 40.5298 33.3691 36.9975 31.4003 34.5076C29.4315 32.0176 26.652 30.7726 23.0618 30.7726C19.4138 30.7726 16.5764 32.0176 14.5497 34.5076C12.5809 36.9396 11.5965 40.414 11.5965 44.9307C11.5965 49.5052 12.5809 53.0664 14.5497 55.6143C16.5764 58.1622 19.3848 59.4361 22.975 59.4361Z" fill="#CA4237"/>
<path d="M56.4178 19.5527H68.1267V67.238H56.4178V19.5527Z" fill="url(#paint0_linear_447_1927)"/>
<path d="M126.175 19.6472L105.306 67.238H95.0139L74.4289 19.6472H86.7988L100.491 53.8295L114.466 19.6472H126.175Z" fill="url(#paint1_linear_447_1927)"/>
<path d="M173.216 44.0091H140.355C140.607 49.1082 141.866 52.8852 144.133 55.3403C146.462 57.7324 149.893 58.9285 154.425 58.9285C159.65 58.9285 164.497 57.2288 168.967 53.8295L172.366 61.9502C170.1 63.7757 167.298 65.2551 163.962 66.3882C160.689 67.4584 157.352 67.9934 153.953 67.9934C146.147 67.9934 140.009 65.7902 135.54 61.3836C131.07 56.977 128.835 50.9338 128.835 43.2537C128.835 38.4065 129.811 34.0944 131.763 30.3173C133.714 26.5403 136.453 23.6131 139.978 21.5357C143.503 19.3954 147.5 18.3252 151.97 18.3252C158.517 18.3252 163.679 20.4655 167.456 24.7462C171.296 28.9639 173.216 34.7868 173.216 42.2151V44.0091ZM152.253 26.8236C149.106 26.8236 146.525 27.7678 144.51 29.6564C142.559 31.4819 141.3 34.1573 140.733 37.6826H162.923C162.546 34.0944 161.444 31.3875 159.618 29.5619C157.856 27.7364 155.401 26.8236 152.253 26.8236Z" fill="url(#paint2_linear_447_1927)"/>
<path d="M208.895 18.4196C210.721 18.4196 212.294 18.6714 213.616 19.175L213.522 29.9396C211.507 29.1213 209.43 28.7121 207.29 28.7121C203.261 28.7121 200.176 29.8767 198.036 32.2059C195.959 34.535 194.92 37.6196 194.92 41.4596V67.238H183.211V33.0557C183.211 28.0196 182.959 23.5186 182.456 19.5527H193.503L194.448 27.9567C195.644 24.8721 197.532 22.5114 200.113 20.8747C202.694 19.238 205.622 18.4196 208.895 18.4196Z" fill="url(#paint3_linear_447_1927)"/>
<path d="M237.196 67.9934C228.572 67.9934 221.71 65.979 216.611 61.9502L219.916 53.6406C225.015 57.4177 230.838 59.3062 237.385 59.3062C240.218 59.3062 242.39 58.8341 243.901 57.8898C245.474 56.9456 246.261 55.6236 246.261 53.9239C246.261 52.4761 245.726 51.3429 244.656 50.5246C243.586 49.6433 241.76 48.8878 239.179 48.2583L231.247 46.4642C222.56 44.5757 218.217 40.1377 218.217 33.1501C218.217 30.2544 219.035 27.7049 220.672 25.5016C222.308 23.2354 224.606 21.4727 227.565 20.2137C230.524 18.9547 233.954 18.3252 237.857 18.3252C241.257 18.3252 244.53 18.8603 247.678 19.9304C250.825 20.9377 253.595 22.417 255.987 24.3685L252.493 32.3947C247.709 28.8695 242.799 27.1068 237.763 27.1068C235.056 27.1068 232.947 27.6105 231.436 28.6177C229.925 29.6249 229.17 31.0098 229.17 32.7724C229.17 34.1573 229.611 35.259 230.492 36.0773C231.436 36.8957 233.01 37.5882 235.213 38.1547L243.334 39.9488C248.055 41.019 251.486 42.6872 253.627 44.9534C255.83 47.1567 256.931 50.0524 256.931 53.6406C256.931 58.0472 255.169 61.541 251.644 64.122C248.118 66.7029 243.303 67.9934 237.196 67.9934Z" fill="url(#paint4_linear_447_1927)"/>
<path d="M267.033 19.5527H278.742V67.238H267.033V19.5527Z" fill="url(#paint5_linear_447_1927)"/>
<path d="M293.84 0.00585938H337.748V9.73177H305.927V28.1449H335.86V37.9652H305.927V67.2374H293.84V0.00585938Z" fill="url(#paint6_linear_447_1927)"/>
<path d="M347.027 19.5521H358.736V67.2374H347.027V19.5521Z" fill="url(#paint7_linear_447_1927)"/>
<path d="M393.272 67.9928C388.299 67.9928 383.987 66.9856 380.335 64.9712C376.684 62.9567 373.883 60.124 371.932 56.4728C369.98 52.7587 369.004 48.4151 369.004 43.442C369.004 38.4688 370.012 34.0938 372.026 30.3167C374.103 26.5397 376.999 23.6124 380.713 21.5351C384.49 19.3947 388.834 18.3246 393.744 18.3246C397.143 18.3246 400.417 18.8596 403.564 19.9298C406.775 21 409.324 22.4793 411.213 24.3679L407.908 32.6774C405.894 31.0406 403.753 29.8131 401.487 28.9947C399.221 28.1134 396.986 27.6728 394.783 27.6728C390.502 27.6728 387.166 29.0262 384.773 31.7331C382.381 34.377 381.185 38.217 381.185 43.2531C381.185 48.2892 382.35 52.1292 384.679 54.7731C387.071 57.4171 390.439 58.739 394.783 58.739C396.986 58.739 399.221 58.2984 401.487 57.4171C403.753 56.5358 405.894 55.2767 407.908 53.64L411.213 61.9495C409.198 63.8381 406.586 65.3174 403.375 66.3876C400.165 67.4577 396.797 67.9928 393.272 67.9928Z" fill="url(#paint8_linear_447_1927)"/>
<path d="M464.746 19.5521V67.2374H453.132V59.5889C451.684 62.2328 449.606 64.3102 446.899 65.821C444.193 67.2689 441.108 67.9928 437.646 67.9928C433.491 67.9928 429.808 66.9856 426.598 64.9712C423.387 62.9567 420.901 60.0925 419.138 56.3784C417.375 52.6643 416.494 48.3521 416.494 43.442C416.494 38.5318 417.375 34.1882 419.138 30.4111C420.964 26.5711 423.482 23.6124 426.692 21.5351C429.903 19.3947 433.554 18.3246 437.646 18.3246C441.108 18.3246 444.193 19.08 446.899 20.5908C449.606 22.0387 451.684 24.0846 453.132 26.7285V19.5521H464.746ZM440.856 58.739C444.759 58.739 447.781 57.3856 449.921 54.6787C452.061 51.9718 453.132 48.1633 453.132 43.2531C453.132 38.217 452.061 34.3456 449.921 31.6387C447.781 28.9318 444.728 27.5783 440.762 27.5783C436.859 27.5783 433.806 28.9947 431.602 31.8275C429.462 34.5974 428.392 38.4688 428.392 43.442C428.392 48.3521 429.462 52.1292 431.602 54.7731C433.806 57.4171 436.89 58.739 440.856 58.739Z" fill="url(#paint9_linear_447_1927)"/>
<path d="M46.3747 3.3252V67.2534H35.691V60.2178C34.3592 62.6499 32.4483 64.5608 29.9583 65.9505C27.4684 67.2824 24.631 67.9483 21.4462 67.9483C17.6823 67.9483 14.3237 66.9928 11.3705 65.0819C8.41731 63.171 6.10107 60.4784 4.4218 57.0041C2.80043 53.4718 1.98975 49.4473 1.98975 44.9307C1.98975 40.414 2.80043 36.4474 4.4218 33.031C6.04317 29.6145 8.33045 26.9798 11.2837 25.1268C14.2369 23.2159 17.6244 22.2605 21.4462 22.2605C24.5731 22.2605 27.3526 22.9264 29.7846 24.2582C32.2746 25.5321 34.1855 27.3562 35.5173 29.7303V3.3252H46.3747ZM24.3125 59.4361C27.9027 59.4361 30.6822 58.1911 32.651 55.7012C34.6777 53.2112 35.691 49.6789 35.691 45.1044C35.691 40.5298 34.7066 36.9975 32.7378 34.5076C30.769 32.0176 27.9895 30.7726 24.3994 30.7726C20.7513 30.7726 17.9139 32.0176 15.8872 34.5076C13.9184 36.9396 12.934 40.414 12.934 44.9307C12.934 49.5052 13.9184 53.0664 15.8872 55.6143C17.9139 58.1622 20.7223 59.4361 24.3125 59.4361Z" fill="#D26053"/>
<path d="M57.7554 19.5527H69.4642V67.238H57.7554V19.5527Z" fill="url(#paint10_linear_447_1927)"/>
<path d="M127.512 19.6472L106.644 67.238H96.3514L75.7665 19.6472H88.1363L101.828 53.8295L115.803 19.6472H127.512Z" fill="url(#paint11_linear_447_1927)"/>
<path d="M174.553 44.0091H141.693C141.945 49.1082 143.204 52.8852 145.47 55.3403C147.799 57.7324 151.23 58.9285 155.763 58.9285C160.987 58.9285 165.835 57.2288 170.304 53.8295L173.704 61.9502C171.437 63.7757 168.636 65.2551 165.3 66.3882C162.026 67.4584 158.69 67.9934 155.29 67.9934C147.484 67.9934 141.347 65.7902 136.877 61.3836C132.408 56.977 130.173 50.9338 130.173 43.2537C130.173 38.4065 131.149 34.0944 133.1 30.3173C135.052 26.5403 137.79 23.6131 141.315 21.5357C144.841 19.3954 148.838 18.3252 153.307 18.3252C159.854 18.3252 165.016 20.4655 168.793 24.7462C172.633 28.9639 174.553 34.7868 174.553 42.2151V44.0091ZM153.591 26.8236C150.443 26.8236 147.862 27.7678 145.848 29.6564C143.896 31.4819 142.637 34.1573 142.071 37.6826H164.261C163.883 34.0944 162.782 31.3875 160.956 29.5619C159.193 27.7364 156.738 26.8236 153.591 26.8236Z" fill="url(#paint12_linear_447_1927)"/>
<path d="M210.233 18.4196C212.058 18.4196 213.632 18.6714 214.954 19.175L214.859 29.9396C212.845 29.1213 210.768 28.7121 208.627 28.7121C204.598 28.7121 201.514 29.8767 199.373 32.2059C197.296 34.535 196.257 37.6196 196.257 41.4596V67.238H184.549V33.0557C184.549 28.0196 184.297 23.5186 183.793 19.5527H194.841L195.785 27.9567C196.981 24.8721 198.87 22.5114 201.451 20.8747C204.032 19.238 206.959 18.4196 210.233 18.4196Z" fill="url(#paint13_linear_447_1927)"/>
<path d="M238.534 67.9934C229.91 67.9934 223.048 65.979 217.949 61.9502L221.254 53.6406C226.353 57.4177 232.176 59.3062 238.723 59.3062C241.555 59.3062 243.727 58.8341 245.238 57.8898C246.812 56.9456 247.599 55.6236 247.599 53.9239C247.599 52.4761 247.064 51.3429 245.993 50.5246C244.923 49.6433 243.098 48.8878 240.517 48.2583L232.585 46.4642C223.898 44.5757 219.554 40.1377 219.554 33.1501C219.554 30.2544 220.373 27.7049 222.009 25.5016C223.646 23.2354 225.944 21.4727 228.902 20.2137C231.861 18.9547 235.292 18.3252 239.195 18.3252C242.594 18.3252 245.868 18.8603 249.015 19.9304C252.163 20.9377 254.933 22.417 257.325 24.3685L253.831 32.3947C249.047 28.8695 244.136 27.1068 239.1 27.1068C236.394 27.1068 234.285 27.6105 232.774 28.6177C231.263 29.6249 230.508 31.0098 230.508 32.7724C230.508 34.1573 230.948 35.259 231.83 36.0773C232.774 36.8957 234.348 37.5882 236.551 38.1547L244.672 39.9488C249.393 41.019 252.824 42.6872 254.964 44.9534C257.167 47.1567 258.269 50.0524 258.269 53.6406C258.269 58.0472 256.506 61.541 252.981 64.122C249.456 66.7029 244.64 67.9934 238.534 67.9934Z" fill="url(#paint14_linear_447_1927)"/>
<path d="M268.37 19.5527H280.079V67.238H268.37V19.5527Z" fill="url(#paint15_linear_447_1927)"/>
<path d="M295.178 0.00585938H339.086V9.73177H307.264V28.1449H337.197V37.9652H307.264V67.2374H295.178V0.00585938Z" fill="url(#paint16_linear_447_1927)"/>
<path d="M348.365 19.5521H360.074V67.2374H348.365V19.5521Z" fill="url(#paint17_linear_447_1927)"/>
<path d="M394.609 67.9928C389.636 67.9928 385.324 66.9856 381.673 64.9712C378.022 62.9567 375.221 60.124 373.269 56.4728C371.318 52.7587 370.342 48.4151 370.342 43.442C370.342 38.4688 371.349 34.0938 373.363 30.3167C375.441 26.5397 378.337 23.6124 382.051 21.5351C385.828 19.3947 390.171 18.3246 395.082 18.3246C398.481 18.3246 401.754 18.8596 404.902 19.9298C408.112 21 410.662 22.4793 412.55 24.3679L409.245 32.6774C407.231 31.0406 405.091 29.8131 402.824 28.9947C400.558 28.1134 398.323 27.6728 396.12 27.6728C391.84 27.6728 388.503 29.0262 386.111 31.7331C383.719 34.377 382.523 38.217 382.523 43.2531C382.523 48.2892 383.687 52.1292 386.017 54.7731C388.409 57.4171 391.777 58.739 396.12 58.739C398.323 58.739 400.558 58.2984 402.824 57.4171C405.091 56.5358 407.231 55.2767 409.245 53.64L412.55 61.9495C410.536 63.8381 407.924 65.3174 404.713 66.3876C401.503 67.4577 398.135 67.9928 394.609 67.9928Z" fill="url(#paint18_linear_447_1927)"/>
<path d="M466.083 19.5521V67.2374H454.469V59.5889C453.021 62.2328 450.944 64.3102 448.237 65.821C445.53 67.2689 442.445 67.9928 438.983 67.9928C434.828 67.9928 431.146 66.9856 427.935 64.9712C424.725 62.9567 422.238 60.0925 420.476 56.3784C418.713 52.6643 417.832 48.3521 417.832 43.442C417.832 38.5318 418.713 34.1882 420.476 30.4111C422.301 26.5711 424.819 23.6124 428.03 21.5351C431.24 19.3947 434.891 18.3246 438.983 18.3246C442.445 18.3246 445.53 19.08 448.237 20.5908C450.944 22.0387 453.021 24.0846 454.469 26.7285V19.5521H466.083ZM442.194 58.739C446.097 58.739 449.118 57.3856 451.259 54.6787C453.399 51.9718 454.469 48.1633 454.469 43.2531C454.469 38.217 453.399 34.3456 451.259 31.6387C449.118 28.9318 446.065 27.5783 442.099 27.5783C438.196 27.5783 435.143 28.9947 432.94 31.8275C430.8 34.5974 429.729 38.4688 429.729 43.442C429.729 48.3521 430.8 52.1292 432.94 54.7731C435.143 57.4171 438.228 58.739 442.194 58.739Z" fill="url(#paint19_linear_447_1927)"/>
<defs>
<linearGradient id="paint0_linear_447_1927" x1="24.2945" y1="-2.25975" x2="239.326" y2="107.652" gradientUnits="userSpaceOnUse">
<stop stop-color="#CA4237"/>
</linearGradient>
<linearGradient id="paint1_linear_447_1927" x1="24.2945" y1="-2.25975" x2="239.326" y2="107.652" gradientUnits="userSpaceOnUse">
<stop stop-color="#CA4237"/>
</linearGradient>
<linearGradient id="paint2_linear_447_1927" x1="24.2945" y1="-2.25975" x2="239.326" y2="107.652" gradientUnits="userSpaceOnUse">
<stop stop-color="#CA4237"/>
</linearGradient>
<linearGradient id="paint3_linear_447_1927" x1="24.2945" y1="-2.25975" x2="239.326" y2="107.652" gradientUnits="userSpaceOnUse">
<stop stop-color="#CA4237"/>
</linearGradient>
<linearGradient id="paint4_linear_447_1927" x1="24.2945" y1="-2.25975" x2="239.326" y2="107.652" gradientUnits="userSpaceOnUse">
<stop stop-color="#CA4237"/>
</linearGradient>
<linearGradient id="paint5_linear_447_1927" x1="24.2945" y1="-2.25975" x2="239.326" y2="107.652" gradientUnits="userSpaceOnUse">
<stop stop-color="#CA4237"/>
</linearGradient>
<linearGradient id="paint6_linear_447_1927" x1="300.529" y1="33.9993" x2="475.442" y2="58.3288" gradientUnits="userSpaceOnUse">
<stop stop-color="#BE4137"/>
</linearGradient>
<linearGradient id="paint7_linear_447_1927" x1="300.529" y1="33.9993" x2="475.442" y2="58.3288" gradientUnits="userSpaceOnUse">
<stop stop-color="#BE4137"/>
</linearGradient>
<linearGradient id="paint8_linear_447_1927" x1="300.529" y1="33.9993" x2="475.442" y2="58.3288" gradientUnits="userSpaceOnUse">
<stop stop-color="#BE4137"/>
</linearGradient>
<linearGradient id="paint9_linear_447_1927" x1="300.529" y1="33.9993" x2="475.442" y2="58.3288" gradientUnits="userSpaceOnUse">
<stop stop-color="#BE4137"/>
</linearGradient>
<linearGradient id="paint10_linear_447_1927" x1="25.632" y1="-2.25975" x2="240.664" y2="107.652" gradientUnits="userSpaceOnUse">
<stop stop-color="#CA4237"/>
<stop offset="0.296875" stop-color="#D36759"/>
<stop offset="0.635417" stop-color="#F49560"/>
<stop offset="1" stop-color="#E4AF71"/>
</linearGradient>
<linearGradient id="paint11_linear_447_1927" x1="25.632" y1="-2.25975" x2="240.664" y2="107.652" gradientUnits="userSpaceOnUse">
<stop stop-color="#CA4237"/>
<stop offset="0.296875" stop-color="#D36759"/>
<stop offset="0.635417" stop-color="#F49560"/>
<stop offset="1" stop-color="#E4AF71"/>
</linearGradient>
<linearGradient id="paint12_linear_447_1927" x1="25.632" y1="-2.25975" x2="240.664" y2="107.652" gradientUnits="userSpaceOnUse">
<stop stop-color="#CA4237"/>
<stop offset="0.296875" stop-color="#D36759"/>
<stop offset="0.635417" stop-color="#F49560"/>
<stop offset="1" stop-color="#E4AF71"/>
</linearGradient>
<linearGradient id="paint13_linear_447_1927" x1="25.632" y1="-2.25975" x2="240.664" y2="107.652" gradientUnits="userSpaceOnUse">
<stop stop-color="#CA4237"/>
<stop offset="0.296875" stop-color="#D36759"/>
<stop offset="0.635417" stop-color="#F49560"/>
<stop offset="1" stop-color="#E4AF71"/>
</linearGradient>
<linearGradient id="paint14_linear_447_1927" x1="25.632" y1="-2.25975" x2="240.664" y2="107.652" gradientUnits="userSpaceOnUse">
<stop stop-color="#CA4237"/>
<stop offset="0.296875" stop-color="#D36759"/>
<stop offset="0.635417" stop-color="#F49560"/>
<stop offset="1" stop-color="#E4AF71"/>
</linearGradient>
<linearGradient id="paint15_linear_447_1927" x1="25.632" y1="-2.25975" x2="240.664" y2="107.652" gradientUnits="userSpaceOnUse">
<stop stop-color="#CA4237"/>
<stop offset="0.296875" stop-color="#D36759"/>
<stop offset="0.635417" stop-color="#F49560"/>
<stop offset="1" stop-color="#E4AF71"/>
</linearGradient>
<linearGradient id="paint16_linear_447_1927" x1="301.866" y1="33.9993" x2="476.779" y2="58.3288" gradientUnits="userSpaceOnUse">
<stop stop-color="#BE4137"/>
<stop offset="1" stop-color="#B86255"/>
</linearGradient>
<linearGradient id="paint17_linear_447_1927" x1="301.866" y1="33.9993" x2="476.779" y2="58.3288" gradientUnits="userSpaceOnUse">
<stop stop-color="#BE4137"/>
<stop offset="1" stop-color="#B86255"/>
</linearGradient>
<linearGradient id="paint18_linear_447_1927" x1="301.866" y1="33.9993" x2="476.779" y2="58.3288" gradientUnits="userSpaceOnUse">
<stop stop-color="#BE4137"/>
<stop offset="1" stop-color="#B86255"/>
</linearGradient>
<linearGradient id="paint19_linear_447_1927" x1="301.866" y1="33.9993" x2="476.779" y2="58.3288" gradientUnits="userSpaceOnUse">
<stop stop-color="#BE4137"/>
<stop offset="1" stop-color="#B86255"/>
</linearGradient>
</defs>
</svg>
