<svg width="1542" height="992" viewBox="0 0 1542 992" fill="none" xmlns="http://www.w3.org/2000/svg">
<rect x="0.80835" y="0.193359" width="1540.38" height="1000.26" fill="white"/>
<path d="M923.415 500.323L840.595 583.143L1074.7 817.245L1157.52 734.425L923.415 500.323Z" fill="#FF9A24" fill-opacity="0.05"/>
<path d="M1020.87 426.681C1096.22 426.681 1157.52 365.386 1157.52 290.035C1157.52 267.391 1151.27 246.309 1141.51 227.569L1036.1 332.981L977.925 274.809L1083.34 169.396C1064.6 159.636 1043.51 153.389 1020.87 153.389C945.52 153.389 884.225 214.685 884.225 290.035C884.225 306.042 887.348 321.269 892.424 335.324L820.197 407.551L750.702 338.056L778.422 310.337L723.373 255.288L806.142 172.52C760.463 126.841 686.284 126.841 640.605 172.52L502.397 310.727L557.446 365.776H447.349L419.629 393.496L557.837 531.703L585.556 503.984V393.496L640.605 448.544L668.325 420.825L737.819 490.319L448.52 779.618L531.288 862.386L975.582 418.482C989.637 423.558 1004.86 426.681 1020.87 426.681Z" fill="#FF9A24" fill-opacity="0.05"/>
</svg>
