<svg width="1600" height="1024" viewBox="0 0 1600 1024" fill="none" xmlns="http://www.w3.org/2000/svg">
<rect width="1600" height="1027.33" fill="white"/>
<path d="M1140.76 551.764H1189.09V600.098H1140.76V551.764ZM1140.76 358.431H1189.09V503.431H1140.76V358.431ZM1164.69 237.598C1031.29 237.598 923.261 345.864 923.261 479.264C923.261 612.664 1031.29 720.931 1164.69 720.931C1298.33 720.931 1406.59 612.664 1406.59 479.264C1406.59 345.864 1298.33 237.598 1164.69 237.598ZM1164.93 672.598C1058.11 672.598 971.594 586.081 971.594 479.264C971.594 372.448 1058.11 285.931 1164.93 285.931C1271.74 285.931 1358.26 372.448 1358.26 479.264C1358.26 586.081 1271.74 672.598 1164.93 672.598Z" fill="#FF9A24" fill-opacity="0.05"/>
</svg>
