<svg width="1600" height="1024" viewBox="0 0 1600 1024" fill="none" xmlns="http://www.w3.org/2000/svg">
<path d="M0.143311 -1.92773H1600.14V1025.41H0.143311V-1.92773Z" fill="white"/>
<path d="M153.729 432.44C154.319 434.624 154.363 436.956 153.787 439.162C140.918 498.884 141.694 547.303 156.37 601.634C170.973 655.692 197.67 703.554 235.945 743.308C241.264 748.902 241.02 757.757 235.5 763.349C229.906 768.668 220.778 768.497 215.459 762.903C174.166 719.57 144.924 667.709 129.068 609.009C113.359 550.855 112.474 496.607 126.096 433.167C127.801 425.383 135.328 420.713 142.84 422.492C148.418 423.622 152.402 427.526 153.729 432.44ZM402.602 784.415C403.34 787.146 403.258 790.097 402.284 792.997C399.611 800.456 391.517 804.108 384.057 801.436C338.533 784.731 299.208 758.443 267.123 723.169C199.736 649.387 169.815 539.706 190.813 441.757C200.773 395.125 221.24 352.686 251.889 315.405C256.716 309.414 265.821 308.419 271.886 313.519C277.95 318.618 278.871 327.451 273.772 333.515C246.009 367.38 227.387 405.806 218.505 447.752C199.537 536.951 226.603 637.15 288.103 704.319C317.244 736.287 352.954 760.037 393.992 775.316C398.405 776.468 401.422 780.047 402.602 784.415ZM686.045 524.761C687.004 528.31 686.598 532.228 684.531 535.423C667.195 565.592 655.372 582.554 627.277 609.77C598.784 637.68 560.486 658.571 516.53 670.445C435.442 692.349 350.638 640.849 327.628 555.666C304.618 470.483 351.957 383.288 433.045 361.384C440.689 359.319 448.318 363.703 450.383 371.348C452.448 378.992 448.064 386.621 440.42 388.686C374.348 406.534 335.977 478.124 354.931 548.291C373.884 618.457 443.083 660.99 509.155 643.143C548.47 632.523 582.422 613.977 607.409 589.358C634.087 563.403 644.22 547.776 659.837 521.001C663.896 514.339 672.36 512.053 679.221 515.765C682.763 518.031 685.087 521.211 686.045 524.761ZM582.658 342.648C591.434 375.137 590.987 406.017 581.221 433.848C564.635 481.977 526.423 518.371 478.917 531.204C471.273 533.269 463.644 528.885 461.579 521.24C459.514 513.595 463.898 505.967 471.542 503.902C510.038 493.503 541.04 464.036 554.43 424.68C562.299 401.756 562.457 377.399 555.082 350.096C553.312 343.544 549.543 332.844 544.682 322.44C541.326 315.437 544.323 307.011 551.599 303.581C558.601 300.224 567.027 303.221 570.458 310.497C577.665 325.248 581.625 338.825 582.658 342.648ZM653.724 382.333C654.019 383.425 654.115 384.864 654.137 386.029C653.85 432.685 645.412 465.43 624.237 503.081C596.612 551.555 551.782 586.222 497.723 600.824C453.494 612.772 407.278 584.83 394.74 538.416C382.203 492.002 408.064 444.59 452.293 432.643C481.507 424.752 498.401 392.944 489.92 361.547C481.438 330.149 450.827 311.175 421.613 319.066C318.684 346.87 259.108 458.169 288.608 567.378C309.553 644.916 371.866 704.249 447.385 718.124C472.376 722.798 499.788 721.252 528.182 713.582C549.478 707.83 582.543 696.847 621.802 668.666C628.163 664.018 637.039 665.429 641.414 671.864C646.062 678.225 644.378 687.175 638.216 691.476C606.064 714.515 572.341 730.655 535.483 740.611C502.721 749.461 471.265 751.221 442.009 745.941C356.028 730.205 284.854 663.013 261.033 574.827C227.477 450.602 296.02 323.697 413.965 291.837C458.195 279.89 504.411 307.832 516.949 354.246C529.486 400.659 503.625 448.071 459.395 460.019C430.182 467.91 413.288 499.717 421.769 531.115C430.25 562.512 460.862 581.487 490.075 573.596C536.762 560.985 575.578 531.165 599.417 489.279C618.075 456.41 625.561 427.73 625.81 386.358C625.73 378.47 632.268 372.309 639.883 372.303C646.531 371.972 652.175 376.599 653.724 382.333Z" fill="#FF9A24" fill-opacity="0.05"/>
<path d="M1450.47 632.209C1450 629.996 1450.08 627.665 1450.78 625.494C1466.91 566.569 1468.79 518.181 1457.12 463.125C1445.51 408.347 1421.48 359.092 1385.44 317.296C1380.44 311.418 1381.17 302.591 1386.99 297.31C1392.87 292.306 1401.97 292.978 1406.97 298.855C1445.82 344.39 1472.18 397.779 1484.78 457.261C1497.28 516.189 1495.18 570.404 1478.1 633.001C1475.97 640.68 1468.2 644.929 1460.79 642.74C1455.29 641.306 1451.52 637.189 1450.47 632.209ZM1221.29 267.101C1220.71 264.334 1220.95 261.391 1222.08 258.55C1225.16 251.248 1233.44 248.047 1240.75 251.124C1285.28 270.303 1323.11 298.71 1353.21 335.693C1416.44 413.063 1440.29 524.221 1413.95 620.87C1401.44 666.885 1378.68 708.137 1346.03 743.678C1340.88 749.395 1331.73 749.889 1325.96 744.464C1320.18 739.039 1319.75 730.169 1325.17 724.394C1354.75 692.105 1375.46 654.759 1386.63 613.364C1410.47 525.341 1388.94 423.807 1331.22 353.363C1303.88 319.842 1269.53 294.168 1229.39 276.659C1225.05 275.266 1222.23 271.527 1221.29 267.101ZM924.022 510.802C923.259 507.205 923.88 503.315 926.119 500.239C945.086 471.067 957.822 454.78 987.369 429.147C1017.35 402.844 1056.74 384.087 1101.28 374.644C1183.45 357.226 1265.3 413.304 1283.6 499.622C1301.89 585.939 1249.84 670.404 1167.67 687.822C1159.92 689.464 1152.55 684.668 1150.91 676.922C1149.26 669.175 1154.06 661.799 1161.81 660.156C1228.76 645.963 1271 576.588 1255.93 505.486C1240.86 434.385 1174.1 388.117 1107.15 402.31C1067.31 410.756 1032.39 427.409 1006.09 450.619C978.024 475.07 967.048 490.117 949.985 515.994C945.566 522.424 936.989 524.242 930.342 520.158C926.93 517.701 924.784 514.398 924.022 510.802ZM1017.26 698.316C1010.28 665.394 1012.42 634.585 1023.7 607.332C1042.9 560.186 1083.05 525.945 1131.19 515.74C1138.94 514.098 1146.31 518.894 1147.96 526.641C1149.6 534.387 1144.8 541.764 1137.06 543.406C1098.05 551.676 1065.47 579.396 1049.94 617.957C1040.83 640.415 1039.33 664.727 1045.2 692.393C1046.61 699.032 1049.78 709.923 1054.06 720.579C1057.03 727.755 1053.58 736.004 1046.12 739.03C1038.95 741.996 1030.7 738.541 1027.67 731.088C1021.29 715.964 1018.08 702.189 1017.26 698.316ZM948.475 654.789C948.24 653.683 948.224 652.241 948.266 651.075C951.114 604.506 961.337 572.273 984.547 535.842C1014.79 488.958 1061.46 456.805 1116.24 445.192C1161.05 435.691 1205.67 466.129 1215.64 513.161C1225.61 560.193 1197.18 606.113 1152.36 615.614C1122.76 621.89 1104.15 652.721 1110.89 684.537C1117.64 716.353 1147.16 736.98 1176.76 730.704C1281.06 708.594 1346.66 600.733 1323.2 490.07C1306.54 411.498 1247.58 348.833 1172.94 330.833C1148.24 324.794 1120.79 324.833 1092.01 330.932C1070.43 335.507 1036.82 344.657 996.07 370.64C989.463 374.932 980.677 373.036 976.663 366.371C972.371 359.764 974.544 350.92 980.932 346.964C1014.3 325.725 1048.86 311.46 1086.21 303.543C1119.41 296.505 1150.91 296.475 1179.83 303.353C1264.82 323.786 1332.2 394.785 1351.14 484.146C1377.83 610.026 1302.42 732.975 1182.9 758.312C1138.08 767.813 1093.47 737.376 1083.5 690.343C1073.53 643.311 1101.96 597.391 1146.78 587.89C1176.38 581.614 1194.99 550.783 1188.25 518.967C1181.5 487.151 1151.98 466.524 1122.38 472.8C1075.07 482.829 1034.67 510.472 1008.57 550.985C988.137 582.781 979.088 611.007 976.568 652.303C976.215 660.183 969.348 665.975 961.744 665.564C955.088 665.529 949.707 660.599 948.475 654.789Z" fill="#FF9A24" fill-opacity="0.05"/>
</svg>
