<svg width="2034" height="2176" viewBox="0 0 2034 2176" fill="none" xmlns="http://www.w3.org/2000/svg">
<path d="M0.742676 0.942383H2033.16V2175.14H0.742676V0.942383Z" fill="white"/>
<path d="M1284.62 1491.58C1269.5 1502.89 1259.51 1518.95 1259.51 1538.35C1167.45 1529.99 1150.71 1655.53 1226.04 1663.89H1460.37C1549.63 1643.3 1526.24 1555.11 1468.74 1542.57M1284.62 1491.58C1351.57 1103.11 1996 1136.59 1962.53 1663.89H1870.47M1284.62 1491.58C1308.82 1473.49 1346.17 1467.58 1376.73 1479.72M1468.74 1542.57C1456.15 1539.83 1441.93 1540.71 1426.9 1546.72C1421.37 1510.78 1401.23 1489.46 1376.73 1479.72M1468.74 1542.57C1518.96 1354.19 1786.77 1396.03 1778.4 1663.89H1870.47M1870.47 1663.89C1887.2 1287.23 1502.22 1228.65 1376.73 1479.72" stroke="#FF9A24" stroke-opacity="0.05" stroke-width="30" stroke-linecap="round" stroke-linejoin="round"/>
<path d="M224.152 472.167C253.359 472.167 277.036 448.49 277.036 419.284C277.036 390.077 253.359 366.4 224.152 366.4C194.946 366.4 171.269 390.077 171.269 419.284C171.269 448.49 194.946 472.167 224.152 472.167Z" fill="#FF9A24" fill-opacity="0.05"/>
<path d="M408.241 657.248C408.796 657.255 409.244 656.806 409.244 656.251V605.387C409.244 604.83 408.788 604.38 408.231 604.383C367.845 604.564 327.324 584.306 301.627 555.986L267.517 518.174C263.072 513.206 257.593 509.273 251.592 506.374C251.457 506.309 251.294 506.294 251.18 506.197C251.089 506.119 251.028 506.011 250.859 506.011V506.011C250.685 506.011 250.515 505.965 250.364 505.88C241.165 500.679 230.667 498.087 219.129 499.136C191.365 501.516 171.269 526.107 171.269 553.87V710.14C171.269 739.226 195.067 763.024 224.153 763.024H355.361C355.913 763.024 356.361 763.471 356.361 764.024V894.232C356.361 894.784 356.808 895.232 357.361 895.232H408.244C408.796 895.232 409.244 894.784 409.244 894.232V749.803C409.244 720.717 385.447 696.92 356.361 696.92H278.036C277.484 696.92 277.036 696.472 277.036 695.92V607.825C277.036 606.978 278.018 606.508 278.676 607.041C312.542 634.511 362.961 656.67 408.241 657.248ZM246.806 789.465C246.382 789.465 246.005 789.734 245.86 790.132C234.832 820.459 205.656 842.349 171.269 842.349C127.376 842.349 91.9443 806.917 91.9443 763.024C91.9443 728.634 113.837 699.717 144.168 688.436C144.563 688.289 144.828 687.913 144.828 687.492V634.682C144.828 634.05 144.246 633.577 143.628 633.707C83.9384 646.333 39.061 699.46 39.061 763.024C39.061 836.003 98.2903 895.232 171.269 895.232C234.833 895.232 287.96 850.354 300.585 790.665C300.716 790.047 300.243 789.465 299.611 789.465H246.806Z" fill="#FF9A24" fill-opacity="0.05"/>
</svg>
