<svg width="1600" height="2175" viewBox="0 0 1600 2175" fill="none" xmlns="http://www.w3.org/2000/svg">
<path d="M0 0H1600V2174.2H0V0Z" fill="white"/>
<path d="M1303.15 1300.16C1288.09 1311.43 1278.13 1327.43 1278.13 1346.76C1186.39 1338.43 1169.71 1463.54 1244.77 1471.87H1478.3C1567.25 1451.35 1543.93 1363.47 1486.64 1350.97M1303.15 1300.16C1369.87 913.025 2012.08 946.388 1978.72 1471.87H1886.98M1303.15 1300.16C1327.27 1282.12 1364.49 1276.24 1394.95 1288.34M1486.64 1350.97C1474.09 1348.23 1459.92 1349.11 1444.94 1355.1C1439.43 1319.29 1419.36 1298.04 1394.95 1288.34M1486.64 1350.97C1536.68 1163.24 1803.57 1204.94 1795.23 1471.87H1886.98M1886.98 1471.87C1903.66 1096.51 1520 1038.13 1394.95 1288.34" stroke="#FF9A24" stroke-opacity="0.05" stroke-width="30" stroke-linecap="round" stroke-linejoin="round"/>
<path d="M110.247 542.633C139.353 542.633 162.948 519.038 162.948 489.932C162.948 460.826 139.353 437.231 110.247 437.231C81.1409 437.231 57.5459 460.826 57.5459 489.932C57.5459 519.038 81.1409 542.633 110.247 542.633Z" fill="#FF9A24" fill-opacity="0.05"/>
<path d="M293.697 727.076C294.252 727.083 294.7 726.634 294.7 726.079V675.397C294.7 674.84 294.244 674.39 293.687 674.393C253.442 674.573 213.062 654.384 187.454 626.163L153.462 588.482C149.033 583.531 143.573 579.612 137.592 576.722C137.458 576.657 137.294 576.643 137.181 576.546C137.09 576.468 137.029 576.36 136.861 576.36V576.36C136.688 576.36 136.519 576.315 136.368 576.23C127.2 571.047 116.739 568.464 105.24 569.509C77.5725 571.881 57.5462 596.387 57.5462 624.055V779.786C57.5462 808.771 81.2616 832.487 110.247 832.487H240.999C241.552 832.487 241.999 832.934 241.999 833.487V963.239C241.999 963.791 242.447 964.239 242.999 964.239H293.7C294.252 964.239 294.7 963.791 294.7 963.239V819.311C294.7 790.326 270.985 766.611 241.999 766.611H163.948C163.396 766.611 162.948 766.163 162.948 765.611V677.83C162.948 676.984 163.931 676.514 164.588 677.047C198.336 704.419 248.577 726.499 293.697 727.076ZM132.825 858.837C132.401 858.837 132.024 859.105 131.879 859.504C120.888 889.725 91.8138 911.538 57.5462 911.538C13.8044 911.538 -21.5052 876.228 -21.5052 832.487C-21.5052 798.216 0.311391 769.4 30.5363 758.157C30.9309 758.01 31.1957 757.635 31.1957 757.214V704.591C31.1957 703.96 30.6142 703.487 29.9961 703.617C-29.4856 716.201 -74.2061 769.144 -74.2061 832.487C-74.2061 905.214 -15.1811 964.239 57.5462 964.239C120.889 964.239 173.832 919.518 186.415 860.037C186.546 859.419 186.073 858.837 185.441 858.837H132.825Z" fill="#FF9A24" fill-opacity="0.05"/>
</svg>
